<?xml version="1.0" encoding="UTF-8" standalone="no"?>
<!-- Created with Inkscape (http://www.inkscape.org/) -->

<svg
   xmlns:dc="http://purl.org/dc/elements/1.1/"
   xmlns:cc="http://creativecommons.org/ns#"
   xmlns:rdf="http://www.w3.org/1999/02/22-rdf-syntax-ns#"
   xmlns:svg="http://www.w3.org/2000/svg"
   xmlns="http://www.w3.org/2000/svg"
   xmlns:sodipodi="http://sodipodi.sourceforge.net/DTD/sodipodi-0.dtd"
   xmlns:inkscape="http://www.inkscape.org/namespaces/inkscape"
   width="210mm"
   height="297mm"
   viewBox="0 0 210 297"
   version="1.1"
   id="svg8"
   inkscape:version="0.92.1 r15371"
   sodipodi:docname="200ml.svg">
  <sodipodi:namedview
     id="base"
     pagecolor="#ffffff"
     bordercolor="#666666"
     borderopacity="1.0"
     inkscape:pageopacity="0.0"
     inkscape:pageshadow="2"
     inkscape:zoom="0.7"
     inkscape:cx="26.519274"
     inkscape:cy="697.17223"
     inkscape:document-units="mm"
     inkscape:current-layer="layer1"
     showgrid="false"
     inkscape:pagecheckerboard="true"
     inkscape:window-width="1920"
     inkscape:window-height="1051"
     inkscape:window-x="-9"
     inkscape:window-y="-9"
     inkscape:window-maximized="1" />
  <defs
     id="defs2" />
  <metadata
     id="metadata5">
    <rdf:RDF>
      <cc:Work
         rdf:about="">
        <dc:format>image/svg+xml</dc:format>
        <dc:type
           rdf:resource="http://purl.org/dc/dcmitype/StillImage" />
        <dc:title></dc:title>
      </cc:Work>
    </rdf:RDF>
  </metadata>
  <g
     id="layer1"
     inkscape:groupmode="layer"
     inkscape:label="Layer 1">
    <g
       id="g4562"
       transform="translate(-34.395833,-139.09524)"
       inkscape:export-xdpi="96"
       inkscape:export-ydpi="96">
      <path
         style="fill:#e8a09f;stroke-width:0.26458332"
         d="m 52.519781,266.62704 c -0.436562,-0.10676 -1.27,-0.43611 -1.852083,-0.7319 -0.582083,-0.2958 -1.607701,-0.61785 -2.279147,-0.71569 -0.785998,-0.11452 -1.43555,-0.40645 -1.823715,-0.81963 l -0.602898,-0.64176 -0.761881,0.54251 -0.761881,0.5425 -0.924986,-0.81214 c -0.983774,-0.86377 -1.983094,-1.23889 -2.634483,-0.98893 -0.600834,0.23056 -1.204145,-0.095 -1.469519,-0.793 -0.20161,-0.53027 -0.419828,-0.62537 -1.434942,-0.62537 h -1.197173 v -1.05833 c 0,-0.94568 0.06875,-1.05834 0.645843,-1.05834 0.877625,0 1.03555,-0.36218 0.406251,-0.93168 -0.28761,-0.26029 -0.525134,-0.60362 -0.527827,-0.76297 -0.0027,-0.15935 1.307449,-1.53988 2.911435,-3.06785 2.597764,-2.47465 2.916224,-2.87645 2.915317,-3.67825 -5.3e-4,-0.49507 0.411212,-2.40007 0.915051,-4.23333 1.442764,-5.24963 1.539946,-6.31831 1.085064,-11.93217 -0.483045,-5.96139 -0.797526,-8.69274 -1.477481,-12.83229 -0.625658,-3.80897 -0.655762,-5.38935 -0.126778,-6.65539 0.26979,-0.6457 0.396875,-1.86646 0.396875,-3.81235 0,-1.57437 0.09059,-2.91847 0.201308,-2.9869 0.11072,-0.0684 0.95453,0.24006 1.875131,0.68554 1.287754,0.62314 2.355059,0.89027 4.627338,1.15813 3.492579,0.41173 7.554288,0.46259 8.11289,0.1016 0.293505,-0.18968 0.121219,-0.25971 -0.661459,-0.26885 -2.241962,-0.0262 -6.607254,-0.97356 -8.202721,-1.78016 -1.847855,-0.93419 -4.113855,-2.58222 -4.835133,-3.51651 -0.897252,-1.16224 -1.020072,-2.13572 -0.933506,-7.39907 0.04667,-2.83765 -0.05198,-6.52859 -0.219233,-8.20208 -0.167249,-1.67349 -0.281155,-3.56835 -0.253119,-4.2108 0.07069,-1.61978 1.262642,-4.57309 4.280543,-10.60587 1.419537,-2.83765 2.841778,-5.75468 3.160535,-6.48229 0.318757,-0.7276 0.732499,-1.50151 0.919427,-1.71979 0.186928,-0.21828 0.520102,-1.23031 0.740386,-2.24896 0.517967,-2.39518 1.655765,-5.51785 2.059572,-5.65246 0.222835,-0.0743 0.26011,0.11859 0.126982,0.65699 -0.180102,0.72837 -0.255254,1.28972 -0.492641,3.67975 -0.05821,0.58604 -0.243282,1.32235 -0.411274,1.63625 -0.167994,0.3139 -0.305443,0.82485 -0.305443,1.13544 0,0.58547 0.305898,0.60045 5.55625,0.27217 0.611556,-0.0382 6.482263,0.20233 8.972,0.36766 1.223817,0.0813 2.480601,0.31514 2.792852,0.51974 0.31225,0.20459 0.907581,1.18807 1.322961,2.18552 0.41538,0.99744 1.647751,3.53993 2.738607,5.64998 3.380457,6.53886 4.730184,11.30538 4.031382,14.23672 -0.181162,0.75994 -0.318238,4.72648 -0.353433,10.22732 l -0.05749,8.98591 -0.79375,0.18899 c -0.436562,0.10394 -1.508125,0.33694 -2.38125,0.51778 -1.486185,0.30782 -1.536843,0.34206 -0.79375,0.53659 0.436563,0.11428 1.239766,0.278 1.784895,0.36382 0.545129,0.0858 1.308238,0.4288 1.6958,0.76216 0.609806,0.52454 0.719095,0.85238 0.811913,2.43561 0.05899,1.00621 0.285806,2.53106 0.504032,3.38856 0.452098,1.77646 0.418523,2.28509 -0.709227,10.74404 -1.630878,12.23279 -1.643578,13.09839 -0.273973,18.67271 1.422985,5.79159 1.502799,6.79419 0.83693,10.51337 -0.303072,1.6928 -0.792649,3.72357 -1.087948,4.51283 -0.978858,2.61624 -2.912325,4.66214 -4.408318,4.66469 -0.31972,5.3e-4 -1.141127,0.29864 -1.825342,0.66244 -1.073256,0.57066 -1.586064,0.66146 -3.735562,0.66146 -2.623371,0 -3.188068,-0.16525 -4.386758,-1.28374 -0.46677,-0.43555 -1.289121,-0.7997 -2.230347,-0.98764 l -1.490959,-0.29771 -1.076942,0.97383 c -1.883499,1.70316 -2.240179,1.86212 -4.112379,1.83276 -0.949886,-0.0149 -2.084252,-0.11442 -2.520815,-0.22117 z m -9.657291,-6.89549 c 0.218281,-0.14107 0.277812,-0.25648 0.132291,-0.25648 -0.145521,0 -0.443177,0.11541 -0.661458,0.25648 -0.218281,0.14106 -0.277813,0.25648 -0.132292,0.25648 0.145521,0 0.443177,-0.11542 0.661459,-0.25648 z m 4.758449,-0.59532 c -0.0071,-0.58308 -0.443148,-1.047 -0.894781,-0.95207 -0.402273,0.0845 -0.403881,0.14142 -0.01945,0.68749 0.458846,0.65175 0.920599,0.78539 0.91422,0.26458 z M 42.44068,257.2133 c -0.906647,-0.76118 -0.978635,-0.90599 -0.648261,-1.30407 0.204407,-0.24629 0.588323,-0.39114 0.853149,-0.32189 0.264827,0.0692 0.481505,0.018 0.481505,-0.1139 0,-0.48137 -1.306417,-0.23585 -1.59285,0.29935 -0.404299,0.75544 -0.09173,1.51371 0.817851,1.98408 0.426249,0.22042 0.7844,0.54654 0.795888,0.7247 0.01371,0.21268 0.07099,0.19755 0.166754,-0.044 0.08656,-0.21836 -0.26882,-0.71613 -0.874036,-1.22423 z m 3.256995,-0.44825 c -0.825032,-1.39703 -1.247685,-1.56475 -1.247685,-0.49513 0,0.62167 0.118208,0.81579 0.496771,0.81579 0.273222,0 0.644988,0.1786 0.826145,0.39688 0.619842,0.74686 0.5832,0.39738 -0.07523,-0.71754 z M 46.03749,246.3857 c 0,-0.27926 -0.507765,-0.39658 -0.658792,-0.15222 -0.0914,0.1479 0.01942,0.2689 0.246301,0.2689 0.22687,0 0.412491,-0.0525 0.412491,-0.11668 z m 11.046354,-40.79592 c 1.026483,-0.27508 0.649795,-0.62735 -0.661459,-0.61857 -1.162568,0.008 -1.218273,0.0375 -0.74318,0.39688 0.580107,0.43877 0.589249,0.44021 1.404639,0.22169 z m 4.97237,-0.51569 c -0.596014,-1.14881 0.387231,-3.65204 2.282248,-5.81035 0.442116,-0.50354 0.681681,-0.91553 0.532371,-0.91553 -0.422106,0 -2.647318,2.65539 -3.229517,3.85385 -0.505027,1.0396 -0.707634,3.01665 -0.346187,3.3781 0.09701,0.097 0.38761,0.17639 0.645766,0.17639 0.419645,0 0.431864,-0.0723 0.115319,-0.68246 z m 4.141462,-0.27813 c -0.05015,-0.48873 0.124156,-1.04389 0.463021,-1.47469 0.706969,-0.89876 0.698915,-1.3413 -0.0087,-0.47514 -0.729104,0.89254 -1.354645,2.34332 -1.151856,2.67144 0.32193,0.5209 0.776709,0.0504 0.697482,-0.72161 z m 3.022833,0.33234 c -0.102444,-0.40817 0.07662,-1.0689 0.511167,-1.88618 0.881097,-1.65711 0.689454,-2.15621 -0.227282,-0.59191 -0.722271,1.23246 -0.975315,3.10634 -0.419471,3.10634 0.176565,0 0.230518,-0.25001 0.135586,-0.62825 z m 1.85108,-0.44052 c 0.04165,-0.82814 0.01677,-0.85833 -0.323656,-0.39276 -0.455399,0.62279 -0.485146,1.54441 -0.04512,1.39774 0.178015,-0.0593 0.343961,-0.51158 0.368776,-1.00498 z m 1.41582,0.34116 c -0.008,-0.6894 -0.02836,-0.70125 -0.3884,-0.2256 -0.38268,0.50556 -0.313248,0.95321 0.147846,0.95321 0.136933,0 0.245182,-0.32743 0.240554,-0.72761 z M 57.14999,202.68083 c 0,-0.36478 0.124878,-0.9233 0.277508,-1.24116 0.173278,-0.36085 -0.02074,-0.23953 -0.516525,0.32299 -0.632341,0.71745 -0.740029,1.00182 -0.52882,1.39647 0.341921,0.63889 0.767837,0.37357 0.767837,-0.4783 z m -2.910417,0.42988 c 0,-0.14552 -0.12609,-0.26458 -0.280199,-0.26458 -0.154109,0 -0.206613,0.11906 -0.116676,0.26458 0.08994,0.14552 0.216027,0.26459 0.280199,0.26459 0.06417,0 0.116676,-0.11907 0.116676,-0.26459 z m 4.561938,-0.22052 c -0.03755,-0.17677 0.173231,-0.79478 0.468397,-1.37335 0.742442,-1.45531 0.504613,-1.31608 -0.492868,0.28854 -0.967508,1.55639 -0.988709,1.6427 -0.37028,1.50746 0.254662,-0.0557 0.432301,-0.24589 0.394751,-0.42265 z m 5.176546,-0.44794 c -0.08146,-0.0815 -0.229407,0.0654 -0.328766,0.32632 -0.143584,0.37709 -0.113194,0.40748 0.148114,0.14812 0.180822,-0.17948 0.262115,-0.39297 0.180652,-0.47444 z m -3.785359,-2.50654 c 0.08994,-0.14552 0.03743,-0.26458 -0.116676,-0.26458 -0.154109,0 -0.280199,0.11906 -0.280199,0.26458 0,0.14552 0.0525,0.26459 0.116676,0.26459 0.06417,0 0.190262,-0.11907 0.280199,-0.26459 z m 10.598909,-2.25737 c -0.282474,-0.21365 -0.632653,-0.38846 -0.778174,-0.38846 -0.14552,0 -0.03347,0.17481 0.249008,0.38846 0.282474,0.21365 0.632653,0.38846 0.778174,0.38846 0.145521,0 0.03347,-0.17481 -0.249008,-0.38846 z m -7.409661,-32.37999 c -0.0984,-0.15922 -0.942779,-0.28764 -1.891255,-0.28764 -1.719667,0 -3.034792,-0.50575 -3.003145,-1.15491 0.008,-0.16516 0.36944,-0.58072 0.803087,-0.92347 0.759235,-0.60007 1.363289,-0.6512 2.88644,-0.24428 1.454399,0.38855 1.589937,0.50104 1.419921,1.17843 -0.109884,0.43782 -0.04171,0.7503 0.195702,0.89703 0.270594,0.16724 0.287491,0.30201 0.06567,0.52382 -0.213465,0.21347 -0.349361,0.21661 -0.476424,0.011 z m -7.29029,-0.55222 c 0,-0.14552 0.12609,-0.26458 0.280199,-0.26458 0.15411,0 0.206613,0.11906 0.116676,0.26458 -0.08994,0.14552 -0.216027,0.26458 -0.280199,0.26458 -0.06417,0 -0.116676,-0.11906 -0.116676,-0.26458 z m 8.557969,-0.40829 c -0.08617,-0.22455 -0.08531,-0.47964 0.0019,-0.56687 0.188442,-0.18844 0.965121,0.40946 0.965121,0.74297 0,0.39928 -0.802304,0.25318 -0.967031,-0.1761 z m 2.289948,-9.7815 c -0.376846,-0.21732 -0.974532,-0.31808 -1.389062,-0.23418 -0.545807,0.11047 -0.727605,0.0441 -0.727605,-0.26559 0,-0.40851 0.44363,-0.58149 1.984375,-0.77377 1.103368,-0.13769 -2.196182,-0.27729 -4.7625,-0.2015 -1.59208,0.047 -2.294339,0.18878 -2.833558,0.572 -0.907317,0.64483 -1.171387,0.64097 -1.344146,-0.0197 -0.175967,-0.6729 -0.725578,-0.68614 -0.899343,-0.0217 -0.148796,0.569 -1.462961,1.21599 -2.028838,0.99885 -0.534615,-0.20515 -0.779907,-1.55583 -0.810691,-4.46396 -0.0149,-1.4084 -0.115012,-2.64863 -0.222452,-2.75607 -0.335817,-0.33582 -0.222908,-4.46651 0.135383,-4.953 0.577249,-0.78378 3.901064,-1.30378 8.300897,-1.29863 3.451238,0.004 4.169878,0.0792 5.226595,0.54663 0.800232,0.35398 1.316569,0.78234 1.488683,1.23504 0.336172,0.8842 0.342247,3.72131 0.0093,4.34342 -0.347703,0.64969 -0.515978,6.35272 -0.193329,6.55212 0.140216,0.0867 -0.02915,0.37601 -0.376367,0.64299 -0.753666,0.57951 -0.723844,0.57765 -1.557345,0.097 z"
         id="path4576"
         inkscape:connector-curvature="0" />
      <path
         style="fill:#e48e60;stroke-width:0.26458332"
         d="m 52.581818,266.32283 c -0.547965,-0.12909 -1.440934,-0.45868 -1.984375,-0.7324 -0.543443,-0.27372 -1.555882,-0.58049 -2.249866,-0.6817 -0.922065,-0.13448 -1.375481,-0.35755 -1.684075,-0.82852 -0.520523,-0.79442 -0.816346,-0.80649 -1.6051,-0.0655 l -0.616321,0.57901 -0.999389,-0.97588 c -0.867323,-0.84692 -1.165088,-0.97588 -2.253308,-0.97588 -0.952738,0 -1.29495,-0.11121 -1.424752,-0.46302 -0.24728,-0.67021 -0.613458,-0.85128 -1.730788,-0.85584 -0.925142,-0.004 -0.992188,-0.0577 -0.992188,-0.7978 0,-0.66516 0.10463,-0.79375 0.645843,-0.79375 0.925126,0 1.088366,-0.47119 0.412491,-1.19063 -0.349875,-0.37242 -0.502685,-0.75484 -0.380577,-0.95241 0.112215,-0.18157 1.434378,-1.51517 2.938137,-2.96355 2.374085,-2.28665 2.734106,-2.74727 2.734106,-3.49804 0,-0.47555 0.26474,-1.68085 0.588309,-2.67844 0.531236,-1.63784 0.597033,-1.73039 0.678223,-0.95391 0.118626,1.1345 0.657595,1.09763 1.360111,-0.093 0.415404,-0.70406 0.518192,-1.18777 0.393563,-1.85208 -0.199218,-1.06194 -0.270463,-1.08587 -0.904499,-0.30384 -0.26546,0.32742 -0.537795,0.53578 -0.605187,0.46302 -0.06739,-0.0728 0.09895,-1.20385 0.369654,-2.51354 0.566008,-2.73841 0.60573,-4.07624 0.233437,-7.86187 -0.147201,-1.49681 -0.397137,-4.03115 -0.555413,-5.63188 -0.158279,-1.60073 -0.461947,-4.04151 -0.67482,-5.42396 -0.212871,-1.38245 -0.478901,-3.7637 -0.59118,-5.29167 -0.176524,-2.40232 -0.1393,-2.92129 0.275188,-3.83646 0.343477,-0.75838 0.480973,-1.71447 0.485137,-3.37343 0.0032,-1.27892 0.118118,-2.31511 0.256736,-2.31511 0.13801,0 1.239338,0.32743 2.447396,0.72761 2.136878,0.70786 2.354395,0.72716 8.017304,0.71124 3.506763,-0.01 6.083794,-0.12889 6.482291,-0.2994 0.593993,-0.25417 0.499542,-0.29919 -0.926041,-0.4414 -4.18406,-0.41739 -7.570108,-0.97242 -9.193247,-1.50694 -3.465264,-1.14116 -6.628641,-3.87489 -6.620047,-5.72091 0.0019,-0.41043 0.0218,-2.41311 0.04418,-4.45041 0.0578,-5.25975 -0.153805,-8.51193 -0.660332,-10.14861 -0.645972,-2.08725 -0.394136,-4.41571 0.762421,-7.0493 0.511249,-1.16417 2.312673,-4.93195 4.003162,-8.37284 l 3.073617,-6.25618 3.236788,-0.0762 c 6.857291,-0.16142 14.359091,-0.0344 15.093355,0.25558 0.561803,0.22186 0.935357,0.73139 1.524984,2.08007 0.429506,0.98242 1.308211,2.79826 1.952678,4.03518 0.644466,1.23693 1.437693,2.78474 1.76272,3.43959 0.32503,0.65484 0.748604,1.50665 0.941276,1.8929 0.192675,0.38626 0.350317,0.90084 0.350317,1.14352 0,0.24267 0.345736,1.53399 0.768305,2.86959 1.324641,4.18676 1.387816,4.52979 1.065239,5.78409 -0.667052,2.59371 -0.990659,4.89424 -0.811517,5.76911 0.10392,0.50751 0.102441,1.6386 -0.0033,2.51354 -0.105727,0.87493 -0.229026,3.71399 -0.273997,6.30901 -0.04745,2.73792 -0.193135,4.80519 -0.34711,4.92543 -0.145939,0.11397 -0.562999,0.27453 -0.926801,0.3568 -2.428973,0.54931 -5.027083,1.34607 -5.027083,1.54165 0,0.12752 0.986803,0.23186 2.192896,0.23186 1.747935,0 2.432439,0.12079 3.373437,0.59531 0.961157,0.48468 1.17116,0.71823 1.130057,1.25677 -0.02777,0.3638 0.111059,1.19724 0.308501,1.85208 1.258274,4.17323 1.258467,4.95892 0.0035,14.15521 -0.516324,3.78354 -1.008335,8.42698 -1.093356,10.31875 -0.151202,3.36436 -0.131366,3.53506 0.907042,7.80521 1.428117,5.87274 1.474816,6.4321 0.854347,10.23366 -0.88828,5.44242 -2.248956,8.08953 -4.512392,8.77858 -0.648803,0.19751 -1.655892,0.60793 -2.237975,0.91205 -0.77977,0.4074 -1.699943,0.58222 -3.495969,0.66421 -2.975666,0.13582 -3.382005,0.0419 -4.713211,-1.08941 -0.578181,-0.49136 -1.4243,-0.96626 -1.880267,-1.05532 -0.455964,-0.0891 -1.121336,-0.23531 -1.4786,-0.32498 -0.526018,-0.13202 -0.889444,0.0701 -1.910699,1.06265 -0.693621,0.67412 -1.554049,1.33704 -1.912062,1.47316 -0.790281,0.30046 -3.031638,0.27984 -4.390906,-0.0404 z m -4.956828,-4.47462 c 0,-0.14552 -0.119063,-0.26458 -0.264584,-0.26458 -0.145521,0 -0.264583,0.11906 -0.264583,0.26458 0,0.14552 0.119062,0.26459 0.264583,0.26459 0.145521,0 0.264584,-0.11907 0.264584,-0.26459 z m -4.197665,-2.15233 c 0.507542,-0.50754 0.589386,-0.52096 0.806897,-0.13229 0.401608,0.71763 0.7292,0.49184 0.907915,-0.62579 0.09308,-0.58209 0.243313,-1.05579 0.333857,-1.05269 0.09054,0.003 0.504026,0.48529 0.918852,1.07151 0.414827,0.58622 0.891077,1.02024 1.058334,0.96449 0.43974,-0.14658 0.414803,-4.47419 -0.02663,-4.62133 -0.220014,-0.0733 -0.332086,0.18499 -0.33478,0.7717 -0.0074,1.61041 -0.368702,1.66778 -1.279194,0.2031 -0.619591,-0.99671 -0.959091,-1.31392 -1.276062,-1.19229 -0.237529,0.0911 -0.824589,0.0361 -1.304575,-0.12229 -0.617432,-0.20377 -1.026041,-0.20596 -1.39691,-0.007 -1.159114,0.62034 -1.020176,2.41083 0.237542,3.06122 1.106649,0.57226 1.036061,1.18863 -0.136125,1.18863 -0.969494,0 -1.140815,0.20856 -0.608542,0.74083 0.491887,0.49189 1.476153,0.37593 2.099419,-0.24733 z m -0.49869,-2.5428 c -1.152093,-0.57338 -1.119639,-1.1257 0.06615,-1.1257 0.852546,0 0.926042,0.063 0.926042,0.79375 0,0.43656 -0.02977,0.78614 -0.06615,0.77683 -0.03638,-0.009 -0.453099,-0.2095 -0.926042,-0.44488 z m 7.42141,-51.03478 c 0.09208,-0.0921 -0.126201,-0.39838 -0.485069,-0.68067 -0.527518,-0.41494 -0.652447,-0.75027 -0.652277,-1.75081 2.64e-4,-1.61096 1.195385,-4.15295 2.624309,-5.58188 1.414053,-1.41405 0.666441,-1.44131 -0.863057,-0.0315 -1.740909,1.60471 -2.636248,3.45465 -2.664318,5.50497 -0.02019,1.47542 0.05723,1.75871 0.601438,2.20036 0.638908,0.5185 1.14141,0.63706 1.438974,0.3395 z m 13.149945,-0.56 c 0.353994,-0.36218 0.343225,-0.3872 -0.09968,-0.23163 -0.688372,0.2418 -1.223235,-0.28239 -1.223235,-1.19882 0,-1.40155 2.198124,-4.91329 3.760301,-6.00749 0.88986,-0.62328 3.357734,-0.62495 4.364148,-0.003 0.479261,0.2962 0.871384,0.63007 0.871384,0.74192 0,0.51801 -2.043284,3.56836 -2.638769,3.93934 -0.367686,0.22906 -0.717401,0.45178 -0.777144,0.49493 -0.05974,0.0431 0.10075,0.30981 0.35665,0.59257 0.255897,0.28276 0.386387,0.64175 0.289978,0.79774 -0.09641,0.15599 -0.105778,0.50263 -0.02082,0.77031 0.131506,0.41435 0.469173,0.49267 2.271652,0.52693 1.970339,0.0374 2.132888,-0.001 2.343626,-0.55521 0.322448,-0.84788 0.847141,-2.88183 0.904396,-3.50585 0.07117,-0.77563 -0.860726,-0.80227 -1.960364,-0.056 l -0.925639,0.62816 0.05159,-0.74519 c 0.08604,-1.24283 0.931595,-2.42219 1.762702,-2.45857 0.42155,-0.0184 1.034796,-0.34704 1.453843,-0.77899 l 0.724754,-0.74709 -0.868209,0.11603 c -0.596437,0.0797 -0.782785,0.0306 -0.595312,-0.15687 0.773948,-0.77395 -0.01328,-0.92577 -0.955855,-0.18434 -0.6476,0.5094 -0.655267,0.50882 -1.579557,-0.11842 -0.734986,-0.49877 -1.270429,-0.62892 -2.565974,-0.6237 -0.903844,0.004 -2.019427,0.18732 -2.490558,0.41006 -2.214446,1.04691 -4.806145,4.38662 -5.238819,6.75081 -0.152487,0.83322 -0.07666,1.07976 0.513663,1.67008 0.742883,0.74289 1.501036,0.72028 2.271246,-0.0677 z m 6.085416,-1.07974 c 0,-0.60018 0.9304,-1.84676 1.18736,-1.59087 0.196715,0.19589 -0.511169,1.68843 -0.920895,1.94165 -0.146556,0.0906 -0.266465,-0.0673 -0.266465,-0.35078 z m 2.126044,-0.32509 c -0.0052,-0.22685 0.165431,-0.64357 0.379084,-0.92604 0.497478,-0.65773 0.503309,-0.18869 0.0084,0.67703 -0.242366,0.42398 -0.381489,0.51338 -0.387498,0.24901 z m -13.247992,1.60599 c 0.608047,-0.003 0.622332,-0.0326 0.211868,-0.44305 -0.262311,-0.26231 -1.028573,-0.48894 -1.89656,-0.56092 -1.509112,-0.12515 -2.99784,0.10144 -2.689876,0.4094 0.423035,0.42304 1.945611,0.8081 2.796516,0.70724 0.509323,-0.0604 1.219446,-0.11107 1.578052,-0.11267 z m 8.228267,-0.15537 c 0.286112,-0.34474 0.282868,-0.45613 -0.01871,-0.64251 -0.293386,-0.18132 -0.303456,-0.36015 -0.05142,-0.9133 0.172371,-0.37831 0.493022,-0.75676 0.712562,-0.84101 0.219541,-0.0842 0.399164,-0.37856 0.399164,-0.65403 0,-0.27547 0.178594,-0.50086 0.396875,-0.50086 0.218281,0 0.396875,-0.11906 0.396875,-0.26458 0,-0.6201 -1.052378,-0.17958 -2.201624,0.92159 -0.991831,0.95034 -1.237959,1.3624 -1.237959,2.07257 0,0.48752 0.07937,0.96577 0.176389,1.06278 0.314654,0.31466 1.073068,0.18683 1.427846,-0.24065 z m -14.799652,-2.13953 c 0.283094,-0.34295 0.290235,-0.46443 0.0324,-0.55121 -0.181901,-0.0612 -0.330729,-0.30336 -0.330729,-0.53807 0,-0.43062 1.227777,-2.40633 1.719048,-2.76625 0.161078,-0.118 0.124984,-0.19597 -0.09186,-0.19843 -1.146487,-0.013 -3.062658,3.32376 -2.380625,4.14556 0.381386,0.45954 0.613505,0.43933 1.051771,-0.0916 z m 3.079126,0.13161 c 0.234669,-0.23467 0.204539,-0.38416 -0.126169,-0.62598 -0.380429,-0.27817 -0.390584,-0.42362 -0.08165,-1.16945 0.522769,-1.26208 1.027316,-1.69543 1.508766,-1.29586 0.523007,0.43406 0.947845,-0.20857 0.585491,-0.88564 -0.332873,-0.62198 -0.832999,-0.60496 -1.424348,0.0485 -0.261688,0.28917 -0.878972,0.67155 -1.37174,0.84973 -0.880877,0.31853 -0.893024,0.34417 -0.722458,1.52477 0.24937,1.72604 0.869548,2.31652 1.632109,1.55396 z m 4.140996,-0.20239 c 0.250709,-0.20812 0.402037,-0.58411 0.336286,-0.83554 -0.06575,-0.25143 0.164097,-0.95651 0.510772,-1.56684 0.84885,-1.49443 0.812621,-1.84944 -0.188732,-1.84944 -1.093568,0 -2.141559,0.78963 -3.257272,2.45427 -0.823169,1.22815 -0.879171,1.41963 -0.528516,1.8071 0.487196,0.53834 2.474748,0.53227 3.127462,-0.01 z m -1.697622,-0.95766 c 0,-0.35453 0.788929,-1.62028 1.295829,-2.07902 0.73969,-0.66941 0.701876,-0.31949 -0.116356,1.07672 -0.574937,0.98106 -1.179473,1.49478 -1.179473,1.0023 z m 6.944614,0.371 c 0.551685,-0.60353 0.94679,-1.15362 0.878007,-1.2224 -0.328624,-0.32862 -1.506715,0.29528 -1.864683,0.98752 -0.851927,1.64744 -0.402357,1.75446 0.986676,0.23488 z m -2.168139,-3.26828 c -0.02074,-0.39272 -0.612674,-0.32057 -0.750001,0.0914 -0.07418,0.22255 0.04677,0.32173 0.322654,0.26459 0.242729,-0.0503 0.435033,-0.21048 0.427347,-0.356 z m 15.088915,-11.24479 c 0.364972,0 0.507527,-0.18579 0.507527,-0.66146 0,-0.41158 -0.149932,-0.66146 -0.396875,-0.66146 -0.218282,0 -0.396875,0.11906 -0.396875,0.26458 0,0.14552 -0.231098,0.26459 -0.513551,0.26459 -0.282454,0 -0.587137,0.11906 -0.677074,0.26458 -0.247701,0.40079 0.133908,0.84974 0.577569,0.67949 0.215464,-0.0827 0.620139,-0.15032 0.899279,-0.15032 z m -0.944486,-4.50309 c 0.200994,-0.32522 -0.352544,-2.1115 -0.654314,-2.1115 -0.357002,0 -0.519605,1.07623 -0.264128,1.74819 0.252947,0.66529 0.637733,0.81751 0.918442,0.36331 z M 54.690455,152.66268 c -0.08326,-0.13472 -0.042,-0.41785 0.09169,-0.62918 0.133691,-0.21134 0.244898,-0.77902 0.247126,-1.26153 0.0021,-0.48251 0.125995,-1.10515 0.275037,-1.38364 0.395693,-0.73936 0.05279,-1.72821 -0.721653,-2.08107 -0.657776,-0.2997 -0.671502,-0.35998 -0.552009,-2.42417 0.0674,-1.16425 0.238689,-2.23297 0.380646,-2.37493 0.501184,-0.50119 4.411369,-1.04536 7.511449,-1.04536 3.45058,0 5.507075,0.33087 6.362687,1.0237 1.036733,0.8395 0.983795,5.28703 -0.05529,4.64485 -0.130334,-0.0805 -0.484831,-0.0678 -0.787768,0.0284 -0.517602,0.16428 -0.545365,0.33275 -0.460653,2.79546 l 0.09014,2.62064 -4.525251,-2.5e-4 c -2.488888,-1.5e-4 -5.240645,0.0745 -6.115013,0.1659 -0.888632,0.0929 -1.656527,0.0581 -1.741146,-0.0788 z"
         id="path4574"
         inkscape:connector-curvature="0" />
      <path
         style="fill:#e65e66;stroke-width:0.26458332"
         d="m 53.007607,266.33517 c -0.604822,-0.11966 -1.560118,-0.45246 -2.122877,-0.73956 -0.56276,-0.2871 -1.586859,-0.60652 -2.275776,-0.70983 -0.927375,-0.13907 -1.423781,-0.3913 -1.912019,-0.97154 -0.871953,-1.03626 -0.832313,-1.27228 0.21368,-1.27228 0.959172,0 1.508125,-0.39325 1.508125,-1.08039 0,-0.24496 0.238125,-0.50766 0.529166,-0.58377 0.560078,-0.14646 0.746633,-0.98167 0.219271,-0.98167 -0.170442,0 -0.54782,0.20836 -0.838613,0.46302 -0.508296,0.44514 -0.520737,0.44258 -0.32208,-0.0661 0.113655,-0.29105 0.26769,-1.60302 0.342305,-2.9155 l 0.135665,-2.38632 -1.762328,-1.64857 c -1.129631,-1.05672 -1.986164,-1.64857 -2.385801,-1.64857 -1.032185,0 -1.079863,-0.57558 -0.259983,-3.13865 0.09297,-0.29065 0.192612,-0.29639 0.514033,-0.0296 0.324779,0.26955 0.495906,0.24294 0.922912,-0.1435 0.288311,-0.26092 0.524203,-0.5971 0.524203,-0.74706 0,-0.14997 0.246316,-0.53486 0.547367,-0.85532 0.485786,-0.51709 0.514744,-0.7038 0.257395,-1.65953 -0.353296,-1.31203 -0.679514,-1.55718 -1.124337,-0.8449 -0.599085,0.95928 -0.6849,0.57938 -0.311457,-1.3788 0.428284,-2.24574 0.462966,-4.59075 0.1177,-7.95855 -0.13681,-1.33449 -0.379957,-3.79556 -0.540326,-5.46905 -0.160367,-1.67349 -0.533146,-4.62262 -0.828395,-6.55362 -0.4401,-2.87834 -0.480401,-3.68185 -0.223679,-4.45973 0.246772,-0.74772 0.241223,-1.0832 -0.02617,-1.58284 -0.293738,-0.54885 -0.253685,-0.82052 0.298204,-2.02256 0.350636,-0.7637 0.756838,-1.47288 0.902671,-1.57597 0.171302,-0.12108 0.148873,-0.30369 -0.06337,-0.51593 -0.47961,-0.47961 -0.429194,-2.84649 0.06467,-3.03601 0.216252,-0.083 1.258049,0.12911 2.315104,0.47133 1.79338,0.58059 2.311226,0.62036 7.742754,0.5947 6.20645,-0.0293 9.049125,-0.4047 5.55625,-0.7337 -6.480612,-0.61041 -9.250281,-1.27004 -12.170834,-2.89862 -0.89254,-0.49771 -1.963764,-1.37596 -2.446999,-2.00619 l -0.859501,-1.12096 0.113231,-4.5271 c 0.08687,-3.47326 0.02969,-4.68866 -0.245658,-5.22112 -0.228341,-0.44156 -0.27206,-0.83269 -0.120184,-1.07524 0.348639,-0.55681 -0.02479,-3.97672 -0.51707,-4.73522 -0.301374,-0.46437 -0.417264,-1.25724 -0.406072,-2.77813 0.01855,-2.51841 0.185388,-2.94405 4.805529,-12.25863 1.711137,-3.44978 3.185888,-6.11414 3.350845,-6.05379 0.162047,0.0593 0.515559,-0.085 0.785585,-0.32072 0.430472,-0.37571 1.529844,-0.42849 8.923753,-0.42849 h 8.432797 l 0.628764,0.66145 c 0.345821,0.36381 0.972105,1.4949 1.391748,2.51355 0.419642,1.01864 1.326917,2.89442 2.016167,4.16839 0.689253,1.27397 1.476153,2.88131 1.748671,3.57187 0.519621,1.31673 1.899436,6.77152 1.899436,7.50899 0,0.23577 0.178594,0.57688 0.396875,0.75804 0.440063,0.36522 0.556715,2.51581 0.150093,2.76712 -0.262073,0.16197 -0.720363,2.18789 -0.912045,4.0318 -0.06349,0.61071 -0.201163,1.2491 -0.305949,1.41864 -0.104785,0.16955 -0.04111,0.40061 0.141502,0.51346 0.258321,0.15966 0.267425,0.49079 0.04102,1.49178 -0.160049,0.70761 -0.279979,1.58423 -0.266509,1.94803 0.01347,0.3638 -0.0019,2.6477 -0.03392,5.07533 l -0.05842,4.41388 -2.023716,0.64816 c -1.113044,0.35649 -2.410669,0.73119 -2.883612,0.83267 -1.525717,0.32737 -0.915834,0.67162 1.190625,0.67204 1.422019,2.6e-4 2.334361,0.1422 2.976563,0.46302 0.876287,0.43775 0.93027,0.54315 1.004729,1.96175 0.06418,1.22278 0.190849,1.57263 0.687115,1.8978 0.888182,0.58196 1.332158,2.96638 1.101026,5.91318 -0.100581,1.28235 -0.540012,5.01045 -0.976513,8.28467 -0.436502,3.27422 -0.859738,7.62 -0.940525,9.65729 -0.145378,3.66621 -0.135708,3.75042 0.94385,8.21728 1.249286,5.16914 1.323933,6.57397 0.573196,10.7875 -0.830879,4.66333 -2.358247,7.27269 -4.612039,7.87922 -0.598472,0.16106 -1.555046,0.53722 -2.125718,0.83592 -0.766715,0.40132 -1.699194,0.57347 -3.571875,0.65943 -2.400745,0.1102 -2.583085,0.0803 -3.460329,-0.56736 -1.954279,-1.44282 -2.458104,-1.69255 -3.76414,-1.8658 -1.329862,-0.17642 -1.362842,-0.16339 -2.561847,1.01155 -1.77473,1.73913 -2.924746,2.03374 -5.753896,1.47401 z M 48.897733,242.9762 c 0.06246,-0.73917 -0.01669,-0.97174 -0.330729,-0.97174 -0.30667,0 -0.412848,0.27786 -0.412848,1.08038 0,1.37855 0.625624,1.28714 0.743577,-0.10864 z m -0.82742,-2.07968 c -0.08446,-0.21107 -0.147156,-0.14837 -0.159851,0.15985 -0.01148,0.27892 0.05104,0.43519 0.138964,0.34727 0.08792,-0.0879 0.09732,-0.31612 0.02088,-0.50712 z m 27.005322,-24.3582 c -0.06057,-0.1819 -0.33459,-0.37423 -0.608939,-0.42739 -0.431562,-0.0836 -0.450995,-0.039 -0.144116,0.33072 0.419683,0.50569 0.910207,0.56866 0.753055,0.0967 z m 2.860431,-0.64829 c -0.122893,-0.32025 -0.243109,-0.3552 -0.463536,-0.13477 -0.22043,0.22043 -0.203534,0.41097 0.06515,0.73471 0.410374,0.49447 0.668935,0.1051 0.398388,-0.59994 z M 50.350045,206.1183 c 0.09208,-0.0921 -0.140907,-0.40995 -0.517745,-0.70637 -0.631558,-0.49678 -0.674352,-0.65815 -0.547,-2.06263 0.149606,-1.64987 1.05069,-3.58139 2.318166,-4.9691 0.782484,-0.85671 1.756301,-1.14344 1.485344,-0.43734 -0.08197,0.21363 -0.04766,0.45107 0.07626,0.52765 0.412602,0.255 0.571458,-0.73873 0.180575,-1.12962 -0.880874,-0.88087 -3.052106,0.7344 -4.310406,3.20669 -0.899657,1.76764 -1.020297,4.32064 -0.244763,5.17977 0.491408,0.54438 1.22279,0.72772 1.559568,0.39095 z m 13.149945,-0.55416 c 0.352777,-0.35574 0.352777,-0.38595 0,-0.27195 -0.686303,0.22181 -1.322917,-0.30282 -1.322917,-1.09019 0,-1.11863 1.413838,-3.71561 2.770436,-5.08882 1.100778,-1.11426 1.344335,-1.23401 2.824464,-1.38872 1.367145,-0.14289 1.758723,-0.0834 2.510372,0.3811 0.489808,0.30272 0.890561,0.64191 0.890561,0.75377 0,0.51801 -2.043284,3.56836 -2.638769,3.93933 -0.367686,0.22906 -0.717401,0.45179 -0.777144,0.49494 -0.05974,0.0431 0.10075,0.3098 0.35665,0.59257 0.255897,0.28276 0.386387,0.64175 0.289978,0.79774 -0.09641,0.15599 -0.105778,0.50263 -0.02082,0.77031 0.131506,0.41435 0.469173,0.49267 2.271652,0.52693 2.36756,0.045 2.223042,0.16228 2.884771,-2.34127 0.555939,-2.10332 0.523745,-2.25422 -0.470948,-2.20746 -0.485513,0.0228 -1.147122,0.28986 -1.470239,0.59341 l -0.587487,0.55192 0.05455,-0.78797 c 0.08788,-1.26931 0.924394,-2.46451 1.750211,-2.50066 0.658797,-0.0288 2.061758,-1.04371 2.061758,-1.49142 0,-0.10653 -0.238125,-0.13143 -0.529167,-0.0553 -0.368014,0.0962 -0.529167,0.008 -0.529167,-0.28935 0,-0.56974 -0.435366,-0.53992 -1.228751,0.0841 -0.6476,0.50941 -0.655267,0.50883 -1.579557,-0.11841 -0.734986,-0.49877 -1.270429,-0.62892 -2.565974,-0.6237 -0.903844,0.004 -2.019427,0.18732 -2.490558,0.41006 -2.214446,1.04691 -4.806145,4.38662 -5.238819,6.75081 -0.152487,0.83322 -0.07666,1.07976 0.513663,1.67008 0.741066,0.74107 1.49535,0.72052 2.271246,-0.0619 z m 6.085416,-1.08558 c 0,-0.60018 0.9304,-1.84676 1.18736,-1.59087 0.196715,0.19589 -0.511169,1.68843 -0.920895,1.94165 -0.146556,0.0906 -0.266465,-0.0673 -0.266465,-0.35078 z m 2.126044,-0.32509 c -0.0052,-0.22685 0.165431,-0.64357 0.379084,-0.92604 0.497478,-0.65773 0.503309,-0.18869 0.0084,0.67703 -0.242366,0.42398 -0.381489,0.51338 -0.387498,0.24901 z m -13.247992,1.60599 c 0.608047,-0.003 0.622332,-0.0326 0.211868,-0.44305 -0.262311,-0.26231 -1.028573,-0.48894 -1.89656,-0.56092 -1.509112,-0.12515 -2.99784,0.10144 -2.689876,0.4094 0.423035,0.42304 1.945611,0.8081 2.796516,0.70724 0.509323,-0.0604 1.219446,-0.11107 1.578052,-0.11267 z m 8.228267,-0.15537 c 0.286112,-0.34474 0.282868,-0.45613 -0.01871,-0.64251 -0.293386,-0.18132 -0.303456,-0.36015 -0.05142,-0.9133 0.172371,-0.37831 0.493022,-0.75676 0.712562,-0.84101 0.219541,-0.0842 0.399164,-0.37856 0.399164,-0.65403 0,-0.27547 0.178594,-0.50086 0.396875,-0.50086 0.218281,0 0.396875,-0.11906 0.396875,-0.26458 0,-0.59315 -1.003477,-0.19844 -2.186117,0.85989 -1.057225,0.9461 -1.256311,1.27488 -1.255012,2.07257 7.94e-4,0.52145 0.08092,1.02747 0.177935,1.12448 0.314654,0.31466 1.073068,0.18683 1.427846,-0.24065 z m -14.833402,-2.0965 c 0.248539,-0.29947 0.255093,-0.48638 0.02671,-0.76157 -0.344006,-0.4145 0.03457,-1.75197 0.495908,-1.75197 0.149122,0 0.271132,-0.17184 0.271132,-0.38188 0,-0.21003 0.264618,-0.56721 0.588039,-0.79375 0.57967,-0.40601 0.580184,-0.41187 0.03608,-0.41187 -1.259166,0 -3.206991,3.22049 -2.478633,4.09811 0.417182,0.50267 0.645491,0.5033 1.060765,0.003 z m 3.112876,0.0886 c 0.234669,-0.23467 0.204539,-0.38416 -0.126169,-0.62598 -0.380429,-0.27817 -0.390584,-0.42362 -0.08165,-1.16945 0.522769,-1.26208 1.027316,-1.69543 1.508766,-1.29586 0.523007,0.43406 0.947845,-0.20857 0.585491,-0.88564 -0.336209,-0.62821 -0.679225,-0.60208 -1.667047,0.12699 -0.450297,0.33236 -1.150612,0.74856 -1.556253,0.9249 -0.621654,0.27024 -0.694399,0.4012 -0.463021,0.83354 0.150979,0.28211 0.274508,0.79459 0.274508,1.13886 0,1.05899 0.873498,1.60452 1.525376,0.95264 z m 4.140996,-0.20239 c 0.250709,-0.20812 0.402037,-0.58411 0.336286,-0.83554 -0.06575,-0.25143 0.164097,-0.95651 0.510772,-1.56684 0.84885,-1.49443 0.812621,-1.84944 -0.188732,-1.84944 -1.093568,0 -2.141559,0.78963 -3.257272,2.45427 -0.823169,1.22815 -0.879171,1.41963 -0.528516,1.8071 0.487196,0.53834 2.474748,0.53227 3.127462,-0.01 z m -1.697622,-1.01564 c 0,-0.41554 1.166304,-1.99675 1.571019,-2.1299 0.254966,-0.0839 0.155869,0.25504 -0.300537,1.02787 -0.647476,1.09637 -1.270482,1.63677 -1.270482,1.10203 z m 6.939523,0.43455 c 0.548886,-0.60047 0.997977,-1.13625 0.997977,-1.19062 0,-0.0544 -0.243811,-0.0989 -0.541801,-0.0989 -0.658561,0 -1.839449,1.21381 -1.839449,1.89072 0,0.72861 0.278204,0.60769 1.383273,-0.60124 z m -2.163048,-3.27385 c -0.02074,-0.39272 -0.612674,-0.32057 -0.750001,0.0914 -0.07418,0.22255 0.04677,0.32173 0.322654,0.26459 0.242729,-0.0503 0.435033,-0.21048 0.427347,-0.356 z m 15.861025,-11.90625 c 0,-1.01424 -0.0784,-1.19063 -0.529167,-1.19063 -0.291041,0 -0.529166,0.11907 -0.529166,0.26459 0,0.14552 -0.289634,0.26458 -0.643628,0.26458 -0.421537,0 -0.704501,0.19179 -0.820034,0.5558 -0.255609,0.80535 0.318852,1.1827 1.926683,1.26559 0.533714,0.0275 0.595312,-0.0925 0.595312,-1.15993 z m -1.52872,-4.07222 c -0.02775,-0.97598 -0.87095,-2.9393 -1.477383,-3.43996 -0.245449,-0.20264 -0.485159,-0.32171 -0.532691,-0.26459 -0.138607,0.16656 0.543406,3.73397 0.875871,4.58145 0.279138,0.71153 0.337569,0.73927 0.730139,0.3467 0.234696,-0.23469 0.416526,-0.78532 0.404064,-1.2236 z m -24.139914,-7.65121 c 0.0022,-0.19049 -0.115012,-0.27276 -0.260533,-0.18282 -0.14552,0.0899 -0.26276,0.42438 -0.260532,0.74322 0.0033,0.47128 0.05202,0.50547 0.260532,0.18282 0.141066,-0.21828 0.258305,-0.55273 0.260533,-0.74322 z m 0.648528,-2.03491 c 0.130284,-0.55383 0.10259,-0.71128 -0.09163,-0.52089 -0.153088,0.15007 -0.348033,0.68585 -0.43321,1.19062 -0.18511,1.09701 0.23549,0.5603 0.524838,-0.66973 z m -9.116452,89.68736 c -0.184075,-0.2218 -0.287951,-0.43016 -0.230833,-0.46302 1.200936,-0.69099 1.378088,-0.74343 1.636917,-0.4846 0.197016,0.19702 0.136384,0.43881 -0.204494,0.81547 -0.580583,0.64154 -0.762252,0.66152 -1.20159,0.13215 z m -3.841633,-1.74643 c -0.107995,-0.34026 -0.04759,-0.64306 0.153016,-0.76705 0.380717,-0.23529 0.154578,-1.052 -0.29129,-1.052 -0.163714,0 -0.359929,0.23812 -0.436039,0.52917 -0.103984,0.39763 -0.360897,0.52916 -1.033563,0.52916 -0.718793,0 -0.895183,-0.10426 -0.895183,-0.52916 0,-0.42838 0.17639,-0.52917 0.926042,-0.52917 1.119071,0 1.176723,-0.37085 0.213889,-1.37583 l -0.712155,-0.74333 0.896347,-0.92479 c 0.492993,-0.50864 1.036246,-0.9248 1.207236,-0.9248 0.356052,0 0.737391,2.35824 0.486897,3.01102 -0.09131,0.23796 0.02434,0.72318 0.257003,1.07827 0.284911,0.43483 0.330602,0.70273 0.139946,0.82057 -0.155694,0.0962 -0.211635,0.45962 -0.124312,0.80755 0.204869,0.81625 -0.53026,0.88194 -0.787834,0.0704 z m 14.79755,-109.2878 c -0.08933,-0.14453 -0.02992,-0.3953 0.132027,-0.55724 0.161947,-0.16195 0.294447,-0.76541 0.294447,-1.34103 0,-0.73331 0.217131,-1.33127 0.725377,-1.99761 0.398954,-0.52306 0.666845,-0.99848 0.595312,-1.05648 -0.07153,-0.058 -0.512122,-0.12867 -0.979085,-0.15702 -1.27444,-0.0774 -1.66452,-0.54275 -1.66452,-1.9858 0,-2.07703 0.247808,-2.84115 1.021246,-3.14905 2.273359,-0.90499 9.473203,-1.10559 11.943337,-0.33275 1.26301,0.39516 1.496917,0.57648 1.771004,1.3729 0.346086,1.00562 0.437251,2.62002 0.185063,3.27721 -0.09417,0.2454 -0.470757,0.41852 -0.910426,0.41852 -0.412406,0 -0.84615,0.14882 -0.963879,0.33073 -0.117729,0.1819 -0.214054,1.40229 -0.214054,2.71197 v 2.38125 l -5.423958,0.0529 c -2.983177,0.0291 -5.632199,0.1072 -5.886715,0.1736 -0.254518,0.0664 -0.535847,0.002 -0.625176,-0.14207 z"
         id="path4572"
         inkscape:connector-curvature="0" />
      <path
         style="fill:#d50c2d;stroke-width:0.26458332"
         d="m 53.307951,266.3494 c -0.73067,-0.10742 -1.821074,-0.4466 -2.423115,-0.75373 -0.602041,-0.30714 -1.611561,-0.6366 -2.243378,-0.73213 -1.25607,-0.18991 -2.339385,-0.98794 -2.339385,-1.72332 0,-0.36124 0.256204,-0.48637 1.124479,-0.54919 0.934778,-0.0676 1.138743,-0.18179 1.209027,-0.67667 0.0465,-0.32742 0.250671,-0.59531 0.453713,-0.59531 0.203038,0 0.496604,-0.23813 0.652364,-0.52917 0.175345,-0.32764 0.55399,-0.52917 0.994222,-0.52917 h 0.711021 l -0.588037,-0.41187 c -0.684538,-0.47947 -0.750448,-0.97604 -0.191164,-1.44021 0.218281,-0.18116 0.396875,-0.48053 0.396875,-0.66527 0,-0.18474 -1.349153,-1.71798 -2.998118,-3.40719 -2.345137,-2.40237 -3.151897,-3.07129 -3.704167,-3.07129 -0.521742,0 -0.706048,-0.13364 -0.706048,-0.51194 0,-0.82469 0.497303,-1.89705 0.85793,-1.85001 0.749667,0.0978 0.994082,-0.0747 1.80223,-1.27219 0.906383,-1.34301 1.001086,-1.88606 0.536448,-3.07621 -0.205078,-0.52531 -0.436581,-0.72037 -0.755851,-0.63688 -0.42405,0.11089 -0.460081,-0.23518 -0.458306,-4.40215 0.0024,-5.75396 -0.161007,-7.70608 -1.360731,-16.25095 -0.25935,-1.84719 -0.353438,-3.59274 -0.245218,-4.54929 0.11829,-1.04554 0.07002,-1.72114 -0.147886,-2.07007 -0.407909,-0.65316 0.197392,-1.68905 1.328851,-2.27415 0.682649,-0.35302 0.770279,-0.552 0.873884,-1.98432 0.06333,-0.87557 0.191164,-1.66797 0.28407,-1.76087 0.0929,-0.0929 1.174147,0.0305 2.402761,0.27435 3.780073,0.75009 12.631269,0.43759 17.106818,-0.60397 0.509323,-0.11853 2.801731,-0.2445 5.09424,-0.27993 3.259417,-0.0504 4.196365,0.0118 4.297389,0.28531 0.07105,0.19235 0.179903,1.0641 0.24189,1.93723 0.06198,0.87312 0.122457,1.61268 0.134381,1.64345 0.06643,0.1714 2.187385,0.60643 2.37906,0.48797 0.366006,-0.2262 0.72413,0.41123 1.077322,1.91755 0.388467,1.65675 0.284078,3.13409 -0.807577,11.42915 -1.451536,11.02967 -1.455441,13.28133 -0.03259,18.78542 1.108908,4.28964 1.222777,5.72637 0.724159,9.13711 -0.859057,5.87629 -2.440731,8.75016 -5.085723,9.24065 -0.556104,0.10313 -1.382694,0.41585 -1.83687,0.69494 -0.930936,0.57207 -4.217323,0.95103 -5.751488,0.66322 -0.537091,-0.10076 -1.468559,-0.62185 -2.121046,-1.18658 -0.95038,-0.82254 -1.441257,-1.03957 -2.680885,-1.18526 l -1.517483,-0.17835 -1.283423,1.20049 c -1.869278,1.74849 -2.425324,1.89878 -5.404649,1.4608 z m -3.387145,-13.9206 c 0.187182,-0.48779 -0.452692,-0.99621 -0.807382,-0.64152 -0.288792,0.28879 -0.02374,1.0651 0.363649,1.0651 0.154654,0 0.354335,-0.19061 0.443733,-0.42358 z m 25.208722,-7.53658 c -0.162431,-0.30351 -0.348015,-0.49914 -0.412411,-0.43474 -0.185182,0.18518 0.190227,0.98657 0.462155,0.98657 0.135157,0 0.112789,-0.24813 -0.04974,-0.55183 z m -26.224093,-0.91583 c 0.368509,-0.80879 0.40077,-1.88278 0.06283,-2.09164 -0.134326,-0.083 -0.323765,-0.51307 -0.420976,-0.95567 -0.09721,-0.4426 -0.314732,-0.75732 -0.483377,-0.69939 -0.288883,0.0992 -0.296405,0.45188 -0.06042,2.83311 0.05047,0.50932 0.105023,1.07487 0.121221,1.25677 0.04901,0.55046 0.454835,0.37208 0.780727,-0.34318 z m 2.688305,-1.39151 c 0,-0.53196 -0.511093,-1.37417 -0.833919,-1.37417 -0.16446,0 -0.221465,0.24729 -0.134054,0.58155 0.08364,0.31985 0.02775,0.73135 -0.124211,0.91445 -0.151959,0.1831 -0.200989,0.45475 -0.108953,0.60366 0.217792,0.3524 1.201137,-0.24155 1.201137,-0.72549 z M 49.8465,218.56496 c 0.179943,-0.46893 -0.005,-0.90216 -0.385043,-0.90216 -0.136932,0 -0.248967,0.29765 -0.248967,0.66145 0,0.74013 0.386111,0.88672 0.63401,0.24071 z m 25.295156,-2.11671 c 0,-0.51508 -0.750038,-0.78708 -1.128043,-0.40908 -0.221911,0.22191 -0.16706,0.395 0.213305,0.67313 0.572783,0.41883 0.914738,0.32012 0.914738,-0.26405 z m 2.805438,-0.59132 c -0.340905,-0.34091 -0.483309,-0.35646 -0.753028,-0.0822 -0.267901,0.27237 -0.203917,0.44347 0.32884,0.87936 0.605978,0.4958 0.66914,0.50269 0.753028,0.0822 0.05036,-0.25243 -0.09762,-0.64814 -0.32884,-0.87936 z m -2.866072,-4.75911 c 0.0576,-0.1728 -0.08378,-0.31419 -0.314193,-0.31419 -0.230407,0 -0.418923,0.18852 -0.418923,0.41892 0,0.46724 0.569585,0.38587 0.733116,-0.10473 z m -34.843477,50.59605 c 0.0127,-0.30822 0.07539,-0.37092 0.159851,-0.15985 0.07643,0.191 0.06703,0.4192 -0.02088,0.50712 -0.08792,0.0879 -0.150452,-0.0684 -0.138964,-0.34727 z m -2.402139,-1.16857 c 0,-0.14552 0.231098,-0.26459 0.513551,-0.26459 0.282454,0 0.587137,0.11907 0.677074,0.26459 0.09274,0.15006 -0.129545,0.26458 -0.513551,0.26458 -0.37239,0 -0.677074,-0.11906 -0.677074,-0.26458 z m 11.75316,-2.53678 c 0.155559,-0.49701 0.402473,-0.86383 0.548693,-0.81516 0.504666,0.16799 0.388874,0.83975 -0.22039,1.2786 l -0.611143,0.44021 z m -10.786687,0.2002 c -0.241155,-0.26647 -0.358825,-0.56412 -0.261496,-0.66146 0.333989,-0.33398 0.556409,-0.17614 0.682697,0.48449 0.151138,0.79063 0.138829,0.7958 -0.421201,0.17697 z m 22.581444,-48.49341 c -6.650416,-0.28131 -8.577122,-0.64443 -11.82066,-2.22779 -1.887916,-0.9216 -3.413744,-2.30744 -3.099803,-2.81541 0.209815,-0.33949 0.162124,-10.80156 -0.06165,-13.52492 -0.165108,-2.00937 -0.190913,-2.07064 -1.017495,-2.41601 -0.74745,-0.3123 -0.887505,-0.54007 -1.180206,-1.91934 -0.4187,-1.97301 -0.22729,-2.7311 1.81468,-7.1872 2.183315,-4.76455 5.675029,-11.52024 5.88891,-11.39373 0.09958,0.0589 0.516303,-0.20699 0.926042,-0.59087 l 0.744977,-0.69797 6.152941,-0.1716 c 7.089473,-0.19772 10.40671,0.088 11.375705,0.97966 0.327421,0.3013 0.595312,0.67524 0.595312,0.83097 0,0.15572 1.077206,2.43888 2.393789,5.07367 1.894205,3.79074 2.508263,5.30956 2.942285,7.2775 0.868193,3.93656 0.902473,4.68624 0.242398,5.30119 -0.333936,0.31111 -0.758518,0.46301 -1.042376,0.37291 -0.339931,-0.10789 -0.568568,0.0447 -0.787728,0.5257 -0.436131,0.9572 -0.386286,1.36227 0.219874,1.78684 0.488614,0.34224 0.505841,0.48389 0.227438,1.87015 -0.218604,1.08852 -0.41049,1.48089 -0.699645,1.43066 -0.625115,-0.1086 -0.672746,0.50774 -0.05179,0.67013 0.515511,0.1348 0.542621,0.2657 0.376862,1.81962 -0.214633,2.01212 -0.582655,2.54517 -1.40335,2.03264 -0.477353,-0.29811 -0.691518,-0.27854 -1.455698,0.13299 -0.830887,0.44747 -0.955127,0.45196 -1.709642,0.0618 -0.511572,-0.26454 -1.486884,-0.42075 -2.627064,-0.42075 -1.541838,0 -1.989585,0.11288 -2.989702,0.75371 -0.646954,0.41455 -1.394756,1.00065 -1.661784,1.30245 -0.435454,0.49217 -0.704054,0.53581 -2.605466,0.42337 -1.669484,-0.0987 -2.259796,-0.0337 -2.778017,0.30582 -0.599821,0.39301 -0.698888,0.39421 -1.119531,0.0135 -0.6252,-0.5658 -1.137587,-0.52532 -2.006965,0.15853 -0.706975,0.55611 -0.744913,0.55914 -1.089946,0.0873 -0.231063,-0.316 -0.301601,-0.83828 -0.199472,-1.47696 0.130956,-0.81895 0.0653,-1.03769 -0.38355,-1.27791 -0.863402,-0.46208 -1.167689,-0.35911 -2.573878,0.87099 -2.356712,2.06159 -3.654544,5.85893 -2.659845,7.78246 0.562382,1.08753 1.402037,1.2774 3.297309,0.74561 1.909175,-0.53568 3.018541,-0.54219 4.021436,-0.0236 0.595188,0.30778 0.911773,0.33599 1.319853,0.11759 0.31723,-0.16978 1.019802,-0.21489 1.717402,-0.11028 0.754994,0.11322 1.18055,0.0778 1.18055,-0.0984 0,-0.3809 -1.277668,-1.35072 -2.027364,-1.53889 -0.898655,-0.22554 -0.766649,-0.70161 0.139369,-0.50262 0.586692,0.12886 0.946555,0.008 1.593466,-0.53668 1.108969,-0.93314 1.521235,-1.70139 1.064493,-1.98367 -0.271764,-0.16796 -0.277678,-0.35536 -0.02847,-0.90232 0.26791,-0.588 0.39379,-0.64792 0.849191,-0.40419 0.527317,0.28221 0.524865,0.30284 -0.178776,1.50351 -0.982313,1.67619 -1.026147,3.60918 -0.09888,4.36049 0.791549,0.64135 1.934782,0.49211 2.855376,-0.37274 0.527669,-0.49572 0.659354,-0.52519 0.868563,-0.19437 0.135628,0.21447 0.24842,0.47924 0.250648,0.58838 0.009,0.43939 1.466543,0.16045 2.073815,-0.39687 0.356761,-0.32743 0.693793,-0.47625 0.748956,-0.33073 0.285305,0.75262 0.665686,0.91036 2.54627,1.05588 2.241225,0.17343 1.938557,0.31722 3.884951,-1.84567 0.621544,-0.69068 0.629119,-0.73939 0.16754,-1.0769 -0.40926,-0.29926 -0.439671,-0.47906 -0.198199,-1.17175 0.262392,-0.7527 0.225626,-0.85453 -0.458955,-1.27116 -0.932426,-0.56745 -0.780063,-1.10221 0.575644,-2.02036 l 1.001596,-0.67832 -0.132509,4.67234 c -0.07288,2.56979 -0.225941,4.75533 -0.340138,4.85676 -0.210632,0.18708 -3.525213,1.05105 -4.032318,1.05105 -0.151993,0 -0.276352,-0.19844 -0.276352,-0.44098 0,-0.24253 -0.0893,-0.35167 -0.198438,-0.24253 -0.10914,0.10914 -0.198437,0.33211 -0.198437,0.49548 0,0.38832 -1.74022,0.88077 -3.571875,1.01078 -0.800365,0.0568 -3.181615,0.0303 -5.291667,-0.059 z m -15.875,-22.72418 c 0,-0.14552 -0.119062,-0.26458 -0.264583,-0.26458 -0.145521,0 -0.264584,0.11906 -0.264584,0.26458 0,0.14552 0.119063,0.26458 0.264584,0.26458 0.145521,0 0.264583,-0.11906 0.264583,-0.26458 z m 30.985262,-4.29738 c -0.284068,-1.25803 -1.486149,-3.37554 -1.916256,-3.37554 -0.379928,0 -0.252492,1.59991 0.295048,3.70417 0.921694,3.54219 0.799462,3.35999 1.386594,2.0668 0.443624,-0.97712 0.477279,-1.32074 0.234614,-2.39543 z m -23.996799,-6.61668 c 0.794624,-1.81143 1.115092,-3.47289 0.639268,-3.31428 -0.597223,0.19907 -1.93362,4.70334 -1.395463,4.70334 0.08077,0 0.421056,-0.62508 0.756195,-1.38906 z m -1.150413,-4.6951 c 0.4324,-1.06254 0.724482,-1.99359 0.649068,-2.069 -0.07541,-0.0754 -0.183256,-0.0875 -0.239647,-0.0269 -0.204695,0.2201 -1.749554,4.00986 -1.749554,4.29191 0,0.62459 0.577156,-0.32118 1.340133,-2.19603 z m 19.014186,-3.2424 c 0.01023,-0.10914 -0.159996,-0.19844 -0.378278,-0.19844 -0.435125,0 -0.490593,0.24167 -0.218315,0.9512 0.165695,0.4318 0.192944,0.42859 0.378277,-0.0445 0.109847,-0.2804 0.20809,-0.59912 0.218316,-0.70826 z m -20.467712,36.95662 c -0.885618,-0.88562 -0.269888,-3.57146 1.314934,-5.73579 0.506148,-0.69122 1.038172,-1.25677 1.18228,-1.25677 0.48032,0 0.269979,0.8886 -0.372356,1.57302 -0.82487,0.87893 -1.746882,2.63708 -1.746882,3.33108 0,0.62425 0.467595,1.18132 0.991592,1.18132 0.196125,0 0.633868,-0.29919 0.972759,-0.66486 l 0.61617,-0.66486 0.435631,0.66486 c 0.466558,0.71206 1.42354,0.88183 1.958015,0.34736 0.238413,-0.23842 0.392938,-0.24207 0.620352,-0.0147 0.227418,0.22742 0.112083,0.34471 -0.46302,0.4709 -0.42123,0.0924 -1.530065,0.39667 -2.464078,0.6761 -2.059922,0.61628 -2.507832,0.62985 -3.045397,0.0923 z m 12.548809,-0.4772 c 0,-0.20009 0.358503,-0.4355 0.796677,-0.52313 0.501769,-0.10036 0.909253,-0.40642 1.100801,-0.82683 0.341773,-0.75011 0.821383,-0.92246 0.568973,-0.20446 -0.449971,1.27997 -2.466451,2.55082 -2.466451,1.55442 z m 4.393753,-0.54013 c 0.08843,-0.23044 0.277024,-0.41898 0.419103,-0.41898 0.347766,0 0.13,0.60134 -0.26551,0.73318 -0.193344,0.0644 -0.252476,-0.0565 -0.153593,-0.3142 z M 54.942346,202.6484 c -0.215688,-0.34899 0.655751,-1.94682 1.000482,-1.83444 0.495298,0.16147 0.424836,0.66646 -0.193249,1.38503 -0.38857,0.45174 -0.698984,0.62456 -0.807233,0.44941 z m -2.81944,-0.69708 c 0,-0.21828 0.119063,-0.47046 0.264584,-0.5604 0.145521,-0.0899 0.264583,0.0151 0.264583,0.23336 0,0.21828 -0.119062,0.47045 -0.264583,0.56039 -0.145521,0.0899 -0.264584,-0.0151 -0.264584,-0.23335 z m 13.681671,-0.16352 c -0.169974,-0.64998 -1.540354,-0.73434 -2.045312,-0.1259 -0.184075,0.2218 -0.388723,0.34923 -0.454773,0.28318 -0.155843,-0.15585 1.33477,-2.32262 1.938843,-2.81834 0.425259,-0.34897 0.450778,-0.32619 0.297987,0.26604 -0.192797,0.74728 0.194339,1.33668 0.877961,1.33668 0.567045,0 1.779143,-1.37241 2.004259,-2.26935 0.190973,-0.76089 0.428627,-0.79153 1.451771,-0.18714 0.920956,0.54402 0.920716,0.54138 0.186536,2.05254 -0.61523,1.26633 -0.753252,1.35138 -1.523859,0.93896 -0.366877,-0.19634 -0.716431,-0.10064 -1.449562,0.39688 -1.16177,0.78839 -1.112028,0.7835 -1.283851,0.12645 z m 0.870413,-2.61461 c 0,-0.14552 0.119062,-0.33816 0.264583,-0.4281 0.145521,-0.0899 0.264583,-0.0445 0.264583,0.10106 0,0.14552 -0.119062,0.33817 -0.264583,0.4281 -0.145521,0.0899 -0.264583,0.0445 -0.264583,-0.10106 z m 11.514822,-10.87033 c -0.235831,-0.38158 0.140245,-2.14843 0.420439,-1.97526 0.312291,0.19301 0.303554,1.8932 -0.01072,2.08744 -0.135467,0.0837 -0.319834,0.0332 -0.40971,-0.11218 z M 58.138939,152.12771 c -0.256445,-0.0669 -0.403331,-0.22345 -0.326414,-0.3479 0.07691,-0.12446 0.01884,-0.30107 -0.129053,-0.39247 -0.404199,-0.24981 -0.307171,-2.31107 0.13639,-2.89751 0.970288,-1.28283 -0.0024,-2.11758 -2.127957,-1.82624 l -1.187749,0.1628 v -1.85565 c 0,-1.21746 0.120529,-1.95568 0.350459,-2.1465 1.087999,-0.90296 8.733637,-1.47359 11.065569,-0.82588 0.530741,0.14742 1.158562,0.56348 1.395161,0.92457 0.236598,0.36109 0.606025,0.65653 0.820952,0.65653 0.297852,0 0.390776,0.35028 0.390776,1.47304 0,1.31585 -0.05253,1.45637 -0.492289,1.31679 -0.286573,-0.091 -0.746043,0.0492 -1.099521,0.33546 -0.530005,0.42917 -0.627229,0.8085 -0.764482,2.98269 l -0.15725,2.49098 -2.38125,0.0333 c -1.309687,0.0183 -2.522466,-0.0793 -2.695067,-0.2168 -0.199157,-0.15869 -0.506984,-0.14667 -0.842502,0.0329 -0.538361,0.28812 -1.120333,0.31786 -1.955773,0.0999 z"
         id="path4570"
         inkscape:connector-curvature="0" />
      <path
         style="fill:#9e161e;stroke-width:0.26458332"
         d="m 53.307951,266.3494 c -0.73067,-0.10742 -1.821074,-0.4466 -2.423115,-0.75373 -0.602041,-0.30714 -1.611561,-0.6366 -2.243378,-0.73213 -1.26582,-0.19138 -2.339385,-0.98921 -2.339385,-1.73853 0,-0.39645 0.214463,-0.48305 1.196298,-0.48305 1.008099,0 1.242102,-0.10053 1.487461,-0.63903 0.293708,-0.64462 0.91908,-0.93822 2.012595,-0.94486 0.327422,-0.002 0.595313,-0.11293 0.595313,-0.24655 0,-0.13362 0.07227,-0.43128 0.160599,-0.66146 0.12055,-0.31415 -0.0075,-0.41851 -0.513551,-0.41851 -0.939501,0 -1.097833,-0.41544 -0.464973,-1.21999 l 0.539379,-0.68571 -0.685879,-0.89924 c -0.377235,-0.49457 -0.763236,-0.89923 -0.857779,-0.89923 -0.09454,0 -0.348303,-0.27975 -0.563909,-0.62167 -0.721966,-1.14492 -4.295045,-4.14083 -4.938573,-4.14083 -0.429553,0 -0.612814,-0.1531 -0.612814,-0.51194 0,-0.82469 0.497303,-1.89705 0.85793,-1.85001 0.749667,0.0978 0.994082,-0.0747 1.80223,-1.27219 0.906383,-1.34301 1.001086,-1.88606 0.536448,-3.07621 -0.205078,-0.52531 -0.436581,-0.72037 -0.755851,-0.63688 -0.42405,0.11089 -0.460081,-0.23518 -0.458306,-4.40215 0.0024,-5.75396 -0.161007,-7.70608 -1.360731,-16.25095 -0.25935,-1.84719 -0.353438,-3.59274 -0.245218,-4.54929 0.120602,-1.06598 0.07092,-1.71971 -0.158639,-2.08728 -0.283202,-0.45349 -0.25087,-0.64763 0.211754,-1.27155 0.670936,-0.90485 1.909784,-1.36322 3.73757,-1.38287 0.947418,-0.0102 1.542058,-0.16214 1.870263,-0.47795 1.448734,-1.394 1.657929,-1.51587 1.912152,-1.11396 0.189693,0.2999 0.245284,0.24624 0.24843,-0.23982 0.0034,-0.51959 0.105378,-0.59901 0.599364,-0.46663 0.327421,0.0877 0.731234,0.16116 0.897358,0.16315 0.166126,0.002 0.376039,0.29843 0.466476,0.65875 0.139912,0.55745 0.311854,0.65137 1.153163,0.62987 0.543803,-0.0139 1.448133,0.0329 2.009624,0.10403 1.230381,0.15585 3.045343,-0.21719 3.629702,-0.74603 0.233794,-0.21158 0.830863,-0.37745 1.326825,-0.36861 0.495961,0.009 1.673405,0.0147 2.616544,0.013 1.243245,-0.002 1.775208,0.10487 1.93449,0.38949 0.120833,0.21592 0.341114,0.31754 0.489516,0.22582 0.148402,-0.0917 0.587568,0.13034 0.975927,0.49346 0.828878,0.77503 1.978006,0.94465 7.002608,1.03366 1.965502,0.0348 3.477246,0.17596 3.603373,0.33643 0.119505,0.15205 0.365332,0.90787 0.54628,1.67959 0.388467,1.65675 0.284078,3.13409 -0.807577,11.42916 -1.451536,11.02966 -1.455441,13.28132 -0.03259,18.78541 1.108908,4.28965 1.222777,5.72637 0.724159,9.13711 -0.859057,5.87629 -2.440731,8.75016 -5.085723,9.24065 -0.556104,0.10313 -1.382694,0.41586 -1.83687,0.69495 -0.930936,0.57206 -4.217323,0.95102 -5.751488,0.66321 -0.537091,-0.10076 -1.468559,-0.62185 -2.121046,-1.18657 -0.95038,-0.82255 -1.441257,-1.03958 -2.680885,-1.18527 l -1.517483,-0.17835 -1.283423,1.20049 c -1.869278,1.74849 -2.425324,1.89878 -5.404649,1.4608 z m -3.387145,-13.9206 c 0.187182,-0.48779 -0.452692,-0.99621 -0.807382,-0.64152 -0.288792,0.28879 -0.02374,1.0651 0.363649,1.0651 0.154654,0 0.354335,-0.19061 0.443733,-0.42358 z m 25.208722,-7.53658 c -0.162431,-0.30351 -0.348015,-0.49914 -0.412411,-0.43474 -0.185182,0.18518 0.190227,0.98657 0.462155,0.98657 0.135157,0 0.112789,-0.24813 -0.04974,-0.55183 z m -26.224093,-0.91583 c 0.368509,-0.80879 0.40077,-1.88278 0.06283,-2.09164 -0.134326,-0.083 -0.323765,-0.51307 -0.420976,-0.95567 -0.09721,-0.4426 -0.314732,-0.75732 -0.483377,-0.69939 -0.288883,0.0992 -0.296405,0.45188 -0.06042,2.83311 0.05047,0.50932 0.105023,1.07487 0.121221,1.25677 0.04901,0.55046 0.454835,0.37208 0.780727,-0.34318 z m 2.688305,-1.39151 c 0,-0.53196 -0.511093,-1.37417 -0.833919,-1.37417 -0.16446,0 -0.221465,0.24729 -0.134054,0.58155 0.08364,0.31985 0.02775,0.73135 -0.124211,0.91445 -0.151959,0.1831 -0.200989,0.45475 -0.108953,0.60366 0.217792,0.3524 1.201137,-0.24155 1.201137,-0.72549 z M 49.8465,218.56496 c 0.179943,-0.46893 -0.005,-0.90216 -0.385043,-0.90216 -0.136932,0 -0.248967,0.29765 -0.248967,0.66145 0,0.74013 0.386111,0.88672 0.63401,0.24071 z m 25.295156,-2.11671 c 0,-0.51508 -0.750038,-0.78708 -1.128043,-0.40908 -0.221911,0.22191 -0.16706,0.395 0.213305,0.67313 0.572783,0.41883 0.914738,0.32012 0.914738,-0.26405 z m 2.805438,-0.59132 c -0.340905,-0.34091 -0.483309,-0.35646 -0.753028,-0.0822 -0.267901,0.27237 -0.203917,0.44347 0.32884,0.87936 0.605978,0.4958 0.66914,0.50269 0.753028,0.0822 0.05036,-0.25243 -0.09762,-0.64814 -0.32884,-0.87936 z M 53.710406,192.1305 c 0,-0.44992 -0.918413,-1.4552 -1.329465,-1.4552 -0.149122,0 -0.386948,0.30461 -0.5285,0.67693 -0.23799,0.62596 -0.299082,0.64771 -0.81145,0.28883 -0.99092,-0.69407 -1.39278,-1.4604 -1.008581,-1.92334 0.532619,-0.64177 -0.150231,-0.88587 -2.49096,-0.89046 -1.137354,-0.002 -2.280862,-0.11801 -2.54113,-0.2573 -0.723635,-0.38728 -1.210767,-3.03915 -0.822886,-4.47964 0.623507,-2.31553 7.338621,-16.11071 7.729662,-15.87941 0.09958,0.0589 0.516303,-0.20699 0.926042,-0.59087 l 0.744977,-0.69797 6.152941,-0.1716 c 7.089473,-0.19772 10.40671,0.088 11.375705,0.97966 0.327421,0.3013 0.595312,0.67524 0.595312,0.83097 0,0.15572 1.077206,2.43888 2.393789,5.07367 1.894205,3.79074 2.508263,5.30956 2.942285,7.2775 0.868194,3.93656 0.902473,4.68624 0.242398,5.30119 -0.333936,0.31111 -0.758518,0.46301 -1.042376,0.37291 -0.48382,-0.15356 -1.096513,0.73085 -1.096513,1.58279 0,0.43574 -0.523406,0.57204 -2.871189,0.74764 -1.373939,0.10276 -1.865921,0.27466 -2.696464,0.9421 -1.03835,0.83444 -1.576097,1.02271 -1.576097,0.55181 0,-0.14552 -0.131969,-0.26458 -0.293266,-0.26458 -0.179991,0 -0.229717,0.2532 -0.128739,0.65553 0.137004,0.54586 0.0515,0.68389 -0.511146,0.8251 -0.453443,0.11381 -0.837684,0.023 -1.168257,-0.2762 -0.270923,-0.24518 -0.653079,-0.41703 -0.849236,-0.38188 -0.778121,0.13941 -2.732606,-0.64426 -3.486163,-1.39782 -0.783169,-0.78317 -0.837152,-0.79537 -3.124036,-0.70615 -2.736075,0.10675 -3.285696,0.44688 -3.183128,1.96989 0.04481,0.66539 -0.08003,1.0676 -0.408776,1.31696 -0.629729,0.47765 -1.134753,0.46828 -1.134753,-0.0211 z m 14.756032,-2.99309 c 0.0576,-0.17281 -0.08378,-0.3142 -0.314192,-0.3142 -0.230407,0 -0.418923,0.18852 -0.418923,0.41893 0,0.46723 0.569584,0.38586 0.733115,-0.10473 z m -22.958115,-2.16628 c 0,-0.14552 -0.119062,-0.26458 -0.264583,-0.26458 -0.145521,0 -0.264584,0.11906 -0.264584,0.26458 0,0.14552 0.119063,0.26458 0.264584,0.26458 0.145521,0 0.264583,-0.11906 0.264583,-0.26458 z m 6.614583,-0.52917 c 0,-0.35277 -0.176389,-0.52916 -0.529166,-0.52916 -0.509903,0 -0.716995,0.51773 -0.352777,0.88194 0.364215,0.36422 0.881943,0.15713 0.881943,-0.35278 z m 24.370679,-3.76821 c -0.284068,-1.25803 -1.486149,-3.37554 -1.916256,-3.37554 -0.379928,0 -0.252492,1.59991 0.295048,3.70417 0.921694,3.54219 0.799462,3.35999 1.386594,2.0668 0.443624,-0.97712 0.477279,-1.32074 0.234614,-2.39543 z m -23.996799,-6.61668 c 0.794624,-1.81143 1.115092,-3.47289 0.639268,-3.31428 -0.597223,0.19907 -1.93362,4.70334 -1.395463,4.70334 0.08077,0 0.421056,-0.62508 0.756195,-1.38906 z m -1.150413,-4.6951 c 0.4324,-1.06254 0.724482,-1.99359 0.649068,-2.069 -0.07541,-0.0754 -0.183256,-0.0875 -0.239647,-0.0269 -0.204695,0.2201 -1.749554,4.00986 -1.749554,4.29191 0,0.62459 0.577156,-0.32118 1.340133,-2.19603 z m 19.014186,-3.2424 c 0.01023,-0.10914 -0.159996,-0.19844 -0.378278,-0.19844 -0.435125,0 -0.490593,0.24167 -0.218315,0.9512 0.165695,0.4318 0.192944,0.42859 0.378277,-0.0445 0.109847,-0.2804 0.20809,-0.59912 0.218316,-0.70826 z m 7.829253,20.18329 c -0.235831,-0.38158 0.140245,-2.14843 0.420439,-1.97526 0.312291,0.19301 0.303554,1.8932 -0.01072,2.08744 -0.135467,0.0837 -0.319834,0.0332 -0.40971,-0.11218 z M 61.169714,151.58902 c -1.021929,-0.12595 -1.044704,-0.17458 -1.186243,-2.53308 -0.09555,-1.59218 -0.19879,-1.88185 -0.895811,-2.51354 -0.974733,-0.88338 -1.44531,-2.26317 -1.187624,-3.48226 0.240371,-1.13718 0.654603,-1.27124 4.036549,-1.30639 2.857188,-0.0297 4.856234,0.44012 5.444133,1.27946 0.210436,0.30044 0.554453,0.54625 0.764482,0.54625 0.282302,0 0.381873,0.34797 0.381873,1.33452 0,0.91907 -0.102957,1.31826 -0.330729,1.2823 -0.627764,-0.0991 -2.315104,0.82543 -2.315104,1.2685 0,0.24125 -0.195027,0.65414 -0.43339,0.91753 -0.331579,0.36639 -0.362432,0.5644 -0.131332,0.84285 0.412637,0.4972 0.08248,1.98349 -0.511169,2.3012 -0.46848,0.25072 -1.908284,0.27554 -3.635635,0.0627 z"
         id="path4568"
         inkscape:connector-curvature="0" />
      <path
         style="fill:#5c0f13;stroke-width:0.26458332"
         d="m 53.343945,266.31892 c -0.856398,-0.125 -1.950273,-0.45926 -2.430833,-0.74279 -0.48056,-0.28354 -1.439251,-0.60033 -2.130425,-0.70398 -1.284605,-0.19264 -2.662526,-1.19263 -2.346952,-1.70324 0.08918,-0.1443 0.68816,-0.26236 1.331061,-0.26236 0.948322,0 1.249016,-0.12226 1.593392,-0.64784 0.330658,-0.50465 0.692965,-0.66547 1.639181,-0.72761 l 1.214697,-0.0798 0.02056,-1.0547 c 0.01892,-0.97012 -0.04308,-1.06604 -0.773184,-1.19623 -0.519433,-0.0926 -0.679942,-0.21327 -0.464444,-0.34911 0.181118,-0.11416 0.451524,-0.43593 0.600903,-0.71504 0.222136,-0.41507 0.102836,-0.69428 -0.655119,-1.53324 l -0.926714,-1.02577 0.508429,-1.05232 c 0.279635,-0.57878 0.69414,-1.20646 0.921123,-1.39484 0.755454,-0.62697 0.413364,-3.35092 -0.676204,-5.38439 -0.202766,-0.37842 -0.03515,-0.72658 0.814491,-1.69183 1.622941,-1.84376 1.797709,-2.74449 1.133211,-5.84045 -0.303546,-1.41424 -0.459471,-2.69114 -0.346501,-2.83755 0.574325,-0.74433 -1.382634,-10.32037 -2.109071,-10.32037 -0.232828,0 -0.4231,0.31195 -0.476496,0.78122 -0.04889,0.42967 -0.282522,0.9228 -0.519181,1.09585 -0.307666,0.22497 -0.354092,0.41704 -0.162915,0.67399 0.262964,0.35344 0.274905,0.76086 0.153969,5.25415 -0.08852,3.28872 -0.496091,2.12522 -0.696097,-1.98712 -0.240366,-4.94239 -0.446736,-5.95038 -1.218248,-5.95038 -0.334947,0 -0.511336,-0.18254 -0.511336,-0.52916 0,-0.29105 -0.115335,-0.52917 -0.256302,-0.52917 -0.271939,0 -0.189307,2.07101 0.300865,7.54062 0.416082,4.64284 0.328923,8.30467 -0.211883,8.90225 -0.237914,0.26289 -0.518086,0.42513 -0.622607,0.36053 -0.104521,-0.0646 -0.13117,-1.03473 -0.05922,-2.15585 0.07195,-1.12112 -0.009,-3.41695 -0.179822,-5.10183 -0.692782,-6.83202 -0.886372,-8.50948 -1.383752,-11.9902 -0.375264,-2.62614 -0.442984,-3.77796 -0.243985,-4.14979 0.428339,-0.80036 0.3391,-2.33965 -0.151554,-2.61424 -0.600347,-0.33597 -0.236275,-1.37482 0.481817,-1.37482 0.301572,0 0.692425,-0.19709 0.868561,-0.43797 0.207444,-0.28369 0.837737,-0.48088 1.789404,-0.5598 1.2931,-0.10723 1.505055,-0.0548 1.76875,0.43797 0.381579,0.71299 1.088408,0.71548 1.695905,0.006 0.473342,-0.55282 0.497033,-0.55348 13.089533,-0.35997 6.93843,0.10662 13.142192,0.20737 13.786135,0.2239 l 1.170805,0.03 0.312198,1.3862 c 0.4014,1.78226 0.27817,4.09709 -0.531778,9.98928 -1.787377,13.00273 -1.824508,14.4088 -0.517065,19.57916 1.180563,4.6686 1.339702,6.81118 0.803858,10.8228 -0.675889,5.06005 -2.36142,8.02179 -4.825278,8.47875 -0.562721,0.10437 -1.394725,0.41811 -1.848901,0.6972 -0.930936,0.57207 -4.217323,0.95102 -5.751488,0.66321 -0.538769,-0.10107 -1.469898,-0.623 -2.128769,-1.19325 -0.943089,-0.81624 -1.460238,-1.04973 -2.655922,-1.19912 l -1.484799,-0.18551 -1.428949,1.30598 c -0.809953,0.74025 -1.795359,1.37926 -2.274802,1.47515 -0.940883,0.18817 -0.840807,0.19227 -2.998251,-0.12263 z m 20.739378,-17.43529 c 0,-0.14552 -0.119063,-0.26458 -0.264583,-0.26458 -0.145521,0 -0.264584,0.11906 -0.264584,0.26458 0,0.14552 0.119063,0.26458 0.264584,0.26458 0.14552,0 0.264583,-0.11906 0.264583,-0.26458 z m 2.257107,-2.59759 c -0.167536,-0.99166 -1.586248,-3.22324 -2.049144,-3.22324 -0.318077,0 -0.247285,2.33992 0.09058,2.99395 0.417335,0.80788 1.640144,1.77342 1.911811,1.50959 0.12429,-0.1207 0.145327,-0.69684 0.04675,-1.2803 z m -18.639348,-8.80083 c 0.220261,-6.5826 0.146894,-8.67796 -0.346657,-9.90054 -0.330864,-0.81959 -0.467349,-0.95606 -0.60503,-0.60495 -0.127577,0.32533 -0.01601,14.49256 0.120068,15.24523 0.0088,0.0485 0.164771,0.0389 0.346673,-0.0213 0.239601,-0.0794 0.373221,-1.37946 0.484946,-4.7184 z M 55.796786,233.689 c 0.0378,-4.04737 0.03305,-4.08285 -0.558403,-4.16718 -0.835104,-0.11909 -0.988573,-1.03506 -0.158377,-0.94529 0.52878,0.0572 0.609174,-0.0445 0.574728,-0.72727 -0.02201,-0.43657 -0.06584,-1.56766 -0.09737,-2.51355 -0.06963,-2.0891 -0.140102,-2.23027 -0.86119,-1.7252 -0.532376,0.37289 -0.562631,0.58622 -0.495517,3.49403 0.03931,1.70329 0.140775,3.20901 0.22547,3.34605 0.0847,0.13705 0.199827,1.03656 0.255845,1.99892 0.05602,0.96236 0.217519,2.09493 0.358891,2.51683 0.141375,0.4219 0.257045,1.22557 0.257045,1.78594 0,0.56037 0.103669,1.01885 0.230376,1.01885 0.126706,0 0.247533,-1.83696 0.268504,-4.08213 z m 12.903568,-1.88241 c 0.08617,-0.22455 0.08531,-0.47964 -0.0019,-0.56687 -0.228775,-0.22877 -0.987134,0.46091 -0.8143,0.74056 0.225819,0.36538 0.643453,0.27651 0.81621,-0.17369 z M 50.244381,219.07791 c 0.412001,-1.43656 -0.55562,-2.19273 -1.598359,-1.24907 -0.449212,0.40654 -0.494165,0.36212 -0.803312,-0.79375 -0.362768,-1.35634 -0.655193,-1.54954 -0.895596,-0.5917 -0.106669,0.425 -0.405313,0.68198 -0.909804,0.78288 -1.310849,0.26217 -1.282494,2.02403 0.03258,2.02403 0.353499,0 0.496771,-0.19077 0.496771,-0.66146 0,-0.3638 0.04124,-0.66146 0.09164,-0.66146 0.358466,0 1.74361,0.94746 2.289609,1.56613 0.734023,0.83171 0.959477,0.75944 1.296475,-0.4156 z m 28.401809,-2.51823 c -0.06474,-0.24756 -0.347666,-0.65823 -0.62873,-0.91258 -0.477848,-0.43245 -0.539782,-0.43372 -0.953926,-0.0196 -0.414147,0.41415 -0.383961,0.50371 0.464929,1.37954 0.782947,0.8078 0.930365,0.87241 1.071634,0.46968 0.09009,-0.25683 0.110833,-0.66951 0.04609,-0.91707 z m -3.293327,0.1332 c 0.124221,-0.83681 -0.509453,-1.19972 -1.494954,-0.85617 -1.041316,0.363 -1.036405,0.52357 0.03298,1.07879 1.026621,0.53301 1.35727,0.48266 1.461969,-0.22262 z M 45.360455,251.141 c -0.282474,-0.21365 -0.72195,-0.39224 -0.976611,-0.39687 -0.724241,-0.0132 -0.545418,-0.49512 0.396875,-1.06965 1.29399,-0.78896 1.521354,-0.68967 1.521354,0.66436 0,1.2817 -0.144666,1.40495 -0.941618,0.80216 z m 3.604223,-12.56289 c -0.01151,-0.62654 0.06873,-0.82731 0.255876,-0.64017 0.180541,0.18055 0.186206,0.48892 0.01678,0.91282 -0.24043,0.60151 -0.256889,0.58505 -0.272648,-0.27265 z m -3.777856,-50.32143 c -0.255508,-0.15956 -0.192074,-0.31647 0.255355,-0.63163 0.861124,-0.60658 0.747713,-1.13487 -0.264583,-1.23247 -0.846344,-0.0816 -0.859769,-0.10387 -0.851787,-1.4128 0.0048,-0.79103 0.259607,-1.91669 0.628804,-2.77812 1.321879,-3.08427 3.765605,-7.98183 3.910417,-7.83702 0.08368,0.0837 -0.04203,0.56135 -0.27936,1.06149 -0.237331,0.50014 -0.426556,1.12948 -0.420497,1.39853 0.0086,0.38219 0.196665,0.27878 0.859896,-0.47287 0.86242,-0.9774 2.020239,-3.08992 3.21432,-5.86474 0.586332,-1.36253 0.717901,-1.50446 1.170273,-1.26236 0.807871,0.43236 1.149506,1.75457 0.784114,3.0347 -0.228645,0.80104 -0.340662,0.94696 -0.427239,0.55653 -0.06454,-0.29104 -0.249679,-0.61244 -0.411422,-0.71422 -0.397512,-0.25014 -1.232207,0.54208 -1.232207,1.1695 0,0.7702 -0.526396,1.58677 -0.924435,1.43403 -0.19508,-0.0749 -0.424072,0.0447 -0.508876,0.2657 -0.241948,0.63051 -0.180679,1.41687 0.110395,1.41687 0.145521,0 0.264583,0.53578 0.264583,1.19062 0,0.65485 0.09534,1.19063 0.21186,1.19063 0.116525,0 0.472165,-0.53578 0.790313,-1.19063 0.790615,-1.62732 1.159671,-1.53568 0.951415,0.23625 -0.154239,1.31233 -0.120756,1.44177 0.417073,1.61247 0.414264,0.13149 0.759955,0.021 1.185556,-0.3788 0.795896,-0.7477 2.681145,-4.58352 3.164165,-6.43796 0.211532,-0.81214 0.51239,-1.71538 0.668571,-2.0072 0.15618,-0.29183 0.283964,-0.76791 0.283964,-1.05795 0,-0.29005 0.298508,-0.76217 0.663352,-1.04915 0.411576,-0.32375 0.603293,-0.67831 0.505111,-0.93417 -0.108802,-0.28353 0.03527,-0.45811 0.461127,-0.55877 1.309251,-0.30945 4.415512,-0.33669 6.521188,-0.0572 2.106956,0.27968 2.191324,0.31694 2.044282,0.9028 -0.100439,0.40018 0.122536,1.13451 0.646049,2.12766 0.439682,0.83412 0.801409,1.69518 0.803841,1.91346 0.01233,1.10698 1.954228,5.00985 2.313792,4.65029 0.06763,-0.0676 -0.247447,-1.37885 -0.700178,-2.9138 -0.476115,-1.61424 -0.819748,-3.37729 -0.815086,-4.18189 l 0.0081,-1.39106 1.910167,3.81488 c 1.050592,2.09819 2.112809,4.18178 2.360481,4.63021 0.247671,0.44843 0.45603,1.01666 0.46302,1.26273 0.007,0.24608 0.131771,0.52099 0.277292,0.61093 0.14552,0.0899 0.265668,0.42439 0.266996,0.74322 0.0013,0.31884 0.296992,1.73601 0.657032,3.14928 0.652894,2.56282 0.651864,3.38354 -0.0043,3.38354 -0.190585,0 -0.402026,0.14883 -0.469871,0.33073 -0.06784,0.1819 -0.06453,-0.38364 0.0074,-1.25677 0.0719,-0.87312 -0.0013,-2.07553 -0.162716,-2.67201 -0.398762,-1.47376 -1.388999,-2.88424 -2.024899,-2.88424 -0.766183,0 -0.598321,1.42879 0.68058,5.79285 0.253018,0.86339 0.225489,1.20639 -0.169894,2.11667 -0.259514,0.59747 -0.515035,1.14298 -0.567828,1.21224 -0.168267,0.22077 -28.871291,0.19032 -29.225695,-0.031 z m 8.02258,-1.32206 c 0.344612,-0.54392 0.284538,-0.89848 -0.2266,-1.33747 -0.86932,-0.74662 -1.386499,-0.7693 -2.065213,-0.0906 -0.68449,0.68449 -0.83036,1.43973 -0.36748,1.90261 0.363551,0.36355 2.353255,0.008 2.659293,-0.47455 z m 15.846838,-3.25517 c 0,-0.20969 -0.119063,-0.45484 -0.264584,-0.54478 -0.145521,-0.0899 -0.264583,0.0816 -0.264583,0.38126 0,0.29963 0.119062,0.54478 0.264583,0.54478 0.145521,0 0.264584,-0.17156 0.264584,-0.38126 z m 3.336485,-0.30231 c 0.513067,-2.04423 -1.824627,-9.20747 -3.830857,-11.73864 l -0.513813,-0.64825 0.08024,2.50034 c 0.0943,2.93866 0.724082,6.59534 1.535652,8.91648 0.570137,1.63063 0.591957,1.65364 1.567698,1.65364 0.843357,0 1.014852,-0.10096 1.16108,-0.68357 z m -1.881277,-1.69768 c -0.284919,-0.461 0.137395,-0.8543 0.549809,-0.51203 0.203724,0.16907 0.30516,0.41298 0.225412,0.54201 -0.193008,0.3123 -0.572762,0.29761 -0.775221,-0.03 z m -2.128634,-2.38125 c -0.562263,-3.74412 -0.807677,-4.74236 -1.578134,-6.41917 -0.620754,-1.351 -0.670644,-1.66399 -0.438639,-2.7518 0.442264,-2.07363 -0.110831,-2.53084 -1.943642,-1.60668 -1.266958,0.63884 -1.497455,1.2648 -0.764128,2.07512 0.297262,0.32847 0.440508,1.07661 0.482262,2.51874 0.03737,1.29084 0.174889,2.08998 0.370885,2.15531 0.17132,0.0571 0.311488,0.32501 0.311488,0.59533 0,0.76728 0.565772,0.93214 1.068457,0.31136 0.446458,-0.55136 0.460555,-0.53641 0.896342,0.95009 0.243514,0.83063 0.67496,2.10786 0.958768,2.83828 0.28381,0.73041 0.516017,1.5579 0.516017,1.83885 0,0.32083 0.09257,0.41733 0.248893,0.25947 0.155546,-0.15709 0.107328,-1.19405 -0.128569,-2.7649 z m -7.078234,-0.58107 c 0.84713,-0.82106 0.872493,-0.90867 0.872493,-3.01339 0,-1.7125 -0.102476,-2.2943 -0.487955,-2.77035 -0.590585,-0.72934 -1.260774,-0.55606 -1.632683,0.42213 -0.284001,0.74699 -0.359429,5.11272 -0.100013,5.78875 0.222221,0.5791 0.352611,0.53779 1.348158,-0.42714 z m 13.166567,-2.84387 c 0.13326,-0.21561 -1.332752,-2.92506 -1.582674,-2.92506 -0.101042,0 0.187028,0.99845 0.667948,2.31511 0.31586,0.86475 0.628436,1.07318 0.914726,0.60995 z m 3.845509,11.79055 c 0,-0.3638 0.119063,-0.73504 0.264584,-0.82498 0.149439,-0.0924 0.264583,0.12434 0.264583,0.49794 0,0.3638 -0.119062,0.73504 -0.264583,0.82497 -0.14944,0.0924 -0.264584,-0.12433 -0.264584,-0.49793 z M 49.213844,173.41123 c 7.94e-4,-0.1819 0.304149,-0.80698 0.674227,-1.38906 0.48413,-0.76146 0.622782,-0.87279 0.494295,-0.39687 -0.213352,0.79025 -0.867815,2.11666 -1.044379,2.11666 -0.06902,0 -0.124886,-0.14882 -0.124143,-0.33073 z m 3.702812,-5.06083 c 0,-0.49971 0.704789,-1.04465 1.06398,-0.82266 0.20093,0.12418 0.14996,0.33985 -0.161708,0.68424 -0.535969,0.59224 -0.902272,0.64843 -0.902272,0.13842 z m 4.082759,-0.72343 c -0.225462,-0.36481 0.371287,-0.7644 0.860939,-0.5765 0.27637,0.10605 0.289964,0.22487 0.05774,0.50468 -0.367165,0.44241 -0.67478,0.46646 -0.918681,0.0718 z m 4.384781,-22.06083 c -0.253201,-0.66598 -0.186965,-1.10137 0.332412,-2.18511 0.222425,-0.46412 0.50868,-0.59532 1.298924,-0.59532 0.944685,0 1.013624,0.0528 1.013624,0.77592 0,0.53676 0.158933,0.82637 0.515634,0.93958 0.554042,0.17585 0.946224,1.02064 0.676454,1.45714 -0.09074,0.14682 -0.934809,0.26695 -1.87571,0.26695 -1.579732,0 -1.729915,-0.0505 -1.961338,-0.65916 z"
         id="path4566"
         inkscape:connector-curvature="0" />
      <path
         style="fill:#1e0203;stroke-width:0.26458332"
         d="m 53.105696,266.07102 c -0.696394,-0.11708 -1.671206,-0.45186 -2.16625,-0.74394 -0.495046,-0.29208 -1.459219,-0.61491 -2.142609,-0.71739 -0.712208,-0.1068 -1.481532,-0.42533 -1.8025,-0.7463 l -0.559972,-0.55997 1.474216,-0.13229 c 0.905798,-0.0813 1.652701,-0.31082 1.937128,-0.59531 0.254601,-0.25466 0.819423,-0.46302 1.255157,-0.46302 1.159872,0 1.64596,-0.35083 2.712574,-1.95775 0.992392,-1.4951 2.921302,-3.33392 3.497263,-3.33392 0.441304,0 1.497362,-1.36433 1.235937,-1.59672 -0.588443,-0.52309 -1.939205,-0.68824 -3.893264,-0.47602 -2.307159,0.25058 -3.11299,-0.0223 -2.133595,-0.72243 1.62455,-1.16136 1.788914,-1.46972 1.607638,-3.01596 -0.09446,-0.8057 -0.30553,-1.91214 -0.469048,-2.45876 -0.226328,-0.75658 -0.213874,-1.53015 0.05217,-3.24036 0.34371,-2.20948 0.29391,-2.99318 -0.43288,-6.81215 -0.103735,-0.54508 -0.03364,-0.7276 0.279427,-0.7276 0.529373,0 0.541808,-0.62612 0.02103,-1.05833 -0.221043,-0.18345 -0.396875,-0.76021 -0.396875,-1.3018 0,-0.53484 -0.30535,-2.39549 -0.678553,-4.1348 -1.604968,-7.47986 -1.767718,-8.61461 -1.596485,-11.13121 0.186859,-2.7462 0.114252,-2.88524 -1.654376,-3.16805 -0.949857,-0.15189 -1.112607,-0.26699 -1.045208,-0.73921 0.07015,-0.49151 0.22682,-0.54885 1.292424,-0.47307 1.007158,0.0716 1.357977,-0.0361 2.070743,-0.63585 l 0.858149,-0.72208 4.189778,0.17272 c 2.304378,0.095 4.465915,0.27487 4.803418,0.39972 0.591156,0.21868 0.576016,0.2463 -0.413136,0.75377 -1.31427,0.67426 -0.954003,0.91662 1.606825,1.08097 2.25207,0.14453 2.831732,-0.13457 2.558518,-1.23191 -0.154027,-0.61863 -0.125407,-0.65762 0.253592,-0.34545 0.234969,0.19354 0.904717,0.40674 1.488329,0.47379 0.823185,0.0946 1.182183,7.9e-4 1.601047,-0.41802 0.494289,-0.4943 0.866981,-0.53994 4.409456,-0.53994 h 3.869531 l -0.168759,0.8438 c -0.139208,0.69603 -0.03538,0.98561 0.592902,1.65364 1.441887,1.53311 1.628807,3.05369 0.961454,7.82131 -1.045041,7.46583 -1.633337,13.64771 -1.575218,16.55253 0.0371,1.85453 0.0062,1.9683 -0.533908,1.9683 -1.053569,0 -2.253033,-1.74315 -2.253033,-3.27428 0,-0.5103 -0.115573,-0.99925 -0.256826,-1.08655 -0.42154,-0.26052 -0.637614,1.20136 -0.31105,2.10446 0.166812,0.4613 0.303292,1.65732 0.303292,2.65781 0,1.4404 0.125296,2.01482 0.60189,2.75934 0.331039,0.51715 0.726528,1.17135 0.878862,1.45379 0.152336,0.28243 0.86375,0.82931 1.580925,1.21527 l 1.303948,0.70175 0.07799,1.59899 c 0.07766,1.59209 0.07423,1.60038 -0.79375,1.92282 -1.32791,0.4933 -2.846335,0.83537 -4.331253,0.97576 -1.170644,0.11068 -1.45056,0.0363 -2.182813,-0.57983 -0.461981,-0.38873 -0.839967,-0.91357 -0.839967,-1.16631 0,-0.25274 -0.290209,-0.73216 -0.644906,-1.06538 -0.542944,-0.51007 -0.637067,-0.8276 -0.595313,-2.00831 0.04076,-1.15251 -0.0623,-1.5217 -0.578281,-2.07166 -0.345332,-0.36807 -0.940644,-0.70548 -1.322917,-0.7498 -0.566452,-0.0657 -0.697039,-0.2206 -0.705839,-0.8374 -0.0059,-0.41626 -0.2143,-0.90563 -0.463021,-1.0875 -0.248722,-0.18188 -0.452223,-0.45269 -0.452223,-0.60181 0,-0.4651 1.315847,-1.16364 1.864143,-0.98962 0.611124,0.19396 0.686056,0.87399 0.120232,1.09112 -0.610656,0.23433 -0.470382,0.62484 0.224448,0.62484 0.474359,0 0.715264,-0.23915 1.018477,-1.01105 0.306567,-0.78044 0.691576,-1.15762 1.687965,-1.65364 1.249288,-0.62193 1.291648,-0.6809 1.316794,-1.83322 0.01429,-0.65485 -0.131921,-1.57376 -0.324914,-2.04203 -0.192992,-0.46827 -0.350895,-1.14585 -0.350895,-1.50573 0,-0.92104 -0.466466,-1.10131 -1.161119,-0.44871 -0.326028,0.30628 -0.644636,0.55697 -0.708017,0.55707 -0.16215,2.6e-4 0.124142,-3.42773 0.662924,-7.93769 0.567653,-4.75163 0.4581,-10.3865 -0.215024,-11.05962 -0.320122,-0.32013 -0.502735,-0.35141 -0.729234,-0.12491 -0.226497,0.2265 -0.160716,0.57355 0.262694,1.38587 0.683088,1.31054 0.701006,1.80661 0.112294,3.10896 -0.606395,1.34146 -1.119888,1.9272 -1.689494,1.9272 -0.2599,0 -0.530931,0.0945 -0.602295,0.20994 -0.07136,0.11547 -0.209637,1.81182 -0.307276,3.76967 -0.09921,1.98937 -0.325745,3.85181 -0.513511,4.22183 -0.184793,0.36416 -0.260461,0.87014 -0.168151,1.12441 0.286401,0.78888 -0.06556,3.45237 -0.474017,3.58718 -0.272931,0.0901 -0.328914,-0.038 -0.212021,-0.48496 0.08736,-0.33406 0.03506,-0.83864 -0.116216,-1.12129 -0.377864,-0.70605 -0.729371,-4.46285 -0.466143,-4.98202 0.131318,-0.259 0.06555,-0.63409 -0.170214,-0.97069 -0.211331,-0.30171 -0.31577,-0.72699 -0.232087,-0.94507 0.08368,-0.21807 -0.03064,-0.73376 -0.254045,-1.14598 -0.4841,-0.89322 -0.487106,-0.87718 -0.57866,3.08698 -0.03865,1.67349 -0.138057,4.9037 -0.220908,7.17825 -0.142984,3.92533 -0.122323,4.17153 0.406479,4.8438 0.306417,0.38954 0.613749,1.14792 0.682961,1.68529 0.06921,0.53737 0.233802,1.09015 0.365752,1.22839 0.13195,0.13825 0.239911,0.45276 0.239911,0.69892 0,0.25675 0.282014,0.51835 0.661458,0.61359 0.77841,0.19536 0.878607,0.83118 0.160581,1.01895 -0.331139,0.0866 -0.595675,0.52295 -0.780605,1.28762 -0.900885,3.72511 -1.177362,4.59032 -1.687179,5.27989 -0.638281,0.86332 -1.051825,3.25982 -0.634529,3.67711 0.148193,0.1482 0.60543,0.26944 1.016084,0.26944 0.410652,0 1.495864,0.33972 2.411579,0.75492 1.236996,0.56088 1.812216,1.00454 2.237947,1.7261 1.003789,1.7013 1.694093,1.62965 4.822505,-0.50056 1.172244,-0.79821 2.186284,-1.45129 2.253422,-1.45129 0.06714,0 0.126031,0.20836 0.130873,0.46302 0.0079,0.4168 0.05506,0.4102 0.47222,-0.0661 0.570881,-0.65187 2.055313,-1.71979 2.390556,-1.71979 0.359706,0 -0.132279,1.97103 -0.943867,3.78138 -0.803608,1.79255 -1.81941,2.74309 -3.192272,2.98717 -0.541419,0.0963 -1.355995,0.39887 -1.810171,0.67247 -0.932502,0.56176 -4.237937,0.93718 -5.751488,0.65323 -0.537091,-0.10076 -1.468559,-0.62184 -2.121046,-1.18657 -0.95038,-0.82255 -1.441257,-1.03957 -2.680885,-1.18527 l -1.517483,-0.17835 -1.283423,1.2005 c -1.875456,1.75426 -2.626463,1.94808 -5.606904,1.447 z m 6.95471,-10.68948 c 0,-0.0642 -0.119062,-0.19026 -0.264583,-0.2802 -0.145521,-0.0899 -0.264583,-0.0374 -0.264583,0.11667 0,0.15411 0.119062,0.2802 0.264583,0.2802 0.145521,0 0.264583,-0.0525 0.264583,-0.11667 z m 14.2875,-6.46551 c 0,-0.27323 -0.187669,-0.65252 -0.417041,-0.84288 -0.345623,-0.28685 -0.4582,-0.28107 -0.657405,0.0337 -0.481343,0.76069 -0.235276,1.30591 0.589378,1.30591 0.298135,0 0.485068,-0.19145 0.485068,-0.49677 z m -16.551164,-5.92595 c 0.295508,-0.451 0.468784,-2.14728 0.691238,-6.76686 0.305601,-6.34631 0.171664,-8.5196 -0.654677,-10.62292 -0.2001,-0.50933 -0.516332,-1.46183 -0.702736,-2.11667 -0.20333,-0.71431 -0.380847,-1.00539 -0.44373,-0.7276 -0.124442,0.54973 -0.483333,0.60695 -0.674945,0.10762 -0.07501,-0.19547 -0.219675,-1.0221 -0.321487,-1.83695 -0.198149,-1.58595 -0.802232,-2.42163 -1.629585,-2.25436 -0.327985,0.0663 -0.467479,0.30696 -0.435202,0.7508 0.02611,0.35926 -0.06177,1.29256 -0.195321,2.074 -0.305168,1.78556 0.306438,8.87321 1.338604,15.51253 0.158361,1.01865 0.358455,2.3031 0.444654,2.85433 0.08733,0.55847 0.361529,1.11185 0.61927,1.24979 0.2544,0.13615 0.545343,0.57745 0.646544,0.98065 0.168357,0.6708 0.599556,1.39752 0.829209,1.39752 0.05159,0 0.271262,-0.27084 0.488164,-0.60188 z m 9.142831,-22.94603 c 0,-0.29105 -0.119062,-0.52917 -0.264583,-0.52917 -0.145521,0 -0.264584,0.23812 -0.264584,0.52917 0,0.29104 0.119063,0.52916 0.264584,0.52916 0.145521,0 0.264583,-0.23812 0.264583,-0.52916 z m -8.995833,-1.01508 c 0,-0.92935 -0.681895,-1.89534 -1.337919,-1.89534 -0.748564,0 -0.630372,0.76267 0.165058,1.06509 0.517988,0.19694 0.639548,0.38324 0.512088,0.78483 -0.09192,0.28963 -0.09169,0.64866 5.29e-4,0.79786 0.278008,0.44983 0.660254,0.0142 0.660254,-0.75244 z m 6.19833,0.18068 c 0.792744,-1.5891 0.262654,-2.07716 -1.033481,-0.95154 -0.646951,0.56184 -0.661813,0.62878 -0.264335,1.19062 0.563047,0.79588 0.803617,0.75156 1.297816,-0.23908 z m 11.279103,-1.613 c 0.644445,-0.7725 0.639932,-1.32558 -0.01566,-1.91888 -0.459356,-0.41572 -0.665953,-0.43878 -1.552051,-0.1733 -0.562181,0.16843 -1.633418,0.30624 -2.380519,0.30624 -0.747102,0 -1.358366,0.11488 -1.358366,0.25528 0,0.4492 0.987473,0.80306 2.241018,0.80306 0.944814,0 1.348679,0.14188 1.803331,0.63352 0.740654,0.80091 0.676577,0.79613 1.262251,0.0941 z M 65.08749,243.21231 c 0,-0.0633 0.123486,-0.43986 0.274415,-0.83683 0.327409,-0.86115 0.942052,-0.49232 0.66008,0.3961 -0.145222,0.45755 -0.934495,0.82979 -0.934495,0.44073 z m 1.893858,-3.85368 c 0,-0.3638 0.06006,-0.51263 0.133453,-0.33073 0.0734,0.1819 0.0734,0.47956 0,0.66146 -0.0734,0.1819 -0.133453,0.0331 -0.133453,-0.33073 z M 44.597315,216.62107 c -0.544245,-0.60138 -0.519586,-0.81036 0.09562,-0.81036 0.770427,0 1.344557,-0.28228 1.344557,-0.66108 0,-0.45557 1.229085,-0.7419 1.795938,-0.41839 0.387943,0.22141 0.326782,0.30318 -0.42577,0.56919 -0.483333,0.17085 -0.980215,0.57741 -1.10418,0.90346 -0.297498,0.78248 -1.18024,0.99832 -1.706163,0.41718 z m 33.58705,-1.33952 c -0.08994,-0.14552 -0.03743,-0.26459 0.116676,-0.26459 0.154109,0 0.280199,0.11907 0.280199,0.26459 0,0.14552 -0.0525,0.26458 -0.116676,0.26458 -0.06417,0 -0.190262,-0.11906 -0.280199,-0.26458 z M 46.566656,188.05567 c -0.639998,-0.19102 -0.643276,-0.20345 -0.101039,-0.38316 0.978361,-0.32423 1.508893,-1.10663 1.174311,-1.7318 -0.247965,-0.46333 -0.46142,-0.52203 -1.42041,-0.39058 -1.523506,0.20882 -1.875605,-0.20693 -1.383559,-1.63369 0.232904,-0.67534 0.533352,-1.05983 0.847338,-1.08437 0.267565,-0.0209 0.635312,-0.0507 0.817214,-0.0661 0.577688,-0.0491 0.388223,-1.08646 -0.198438,-1.08646 -0.291042,0 -0.529167,-0.10932 -0.529167,-0.24294 0,-0.59746 0.360963,-1.07997 0.807913,-1.07997 0.296482,0 0.864196,-0.5687 1.452497,-1.45501 0.906341,-1.36546 1.443757,-1.65518 1.443757,-0.77834 0,0.2097 0.178594,0.38126 0.396875,0.38126 0.262813,0 0.396875,0.26285 0.396875,0.77814 0,1.12697 0.513096,1.28885 1.233101,0.38902 0.596437,-0.74539 0.616397,-0.75062 0.617667,-0.16183 0.0016,0.67418 0.695823,2.16967 1.007393,2.16967 0.109308,0 1.004867,-0.81235 1.990133,-1.80522 1.732571,-1.74595 1.827903,-1.91242 2.90332,-5.06974 0.611561,-1.79548 1.23099,-3.21555 1.376511,-3.15571 0.145521,0.0598 0.212738,0.22786 0.149373,0.37338 -0.06337,0.14552 -0.163999,2.29443 -0.223626,4.77535 -0.131429,5.46832 -0.232833,5.29281 3.032877,5.2493 1.218634,-0.0162 2.294448,-0.10827 2.390698,-0.20453 0.09625,-0.0962 -0.08571,-0.3576 -0.404347,-0.58079 -0.571894,-0.40057 -0.811509,-1.43412 -0.332481,-1.43412 0.187066,0 1.738776,1.75258 2.318883,2.61907 0.03886,0.058 0.394973,0.11757 0.791369,0.13229 0.618252,0.023 0.751334,0.17428 0.936061,1.06438 0.267766,1.29022 0.685887,1.84515 1.119259,1.48548 0.195326,-0.1621 0.409138,-0.16756 0.562351,-0.0143 0.153215,0.15322 0.749371,0.11958 1.567976,-0.0885 l 1.320774,-0.33568 0.132291,-1.77392 c 0.07276,-0.97566 0.240528,-1.80188 0.372817,-1.83605 0.132286,-0.0342 0.574886,0.93297 0.983551,2.14918 0.675479,2.01025 0.714031,2.31973 0.424045,3.40395 -0.345635,1.29229 -0.882528,1.664 -2.39295,1.65674 -0.970626,-0.005 -1.341231,-0.20525 -1.581271,-0.85584 -0.09396,-0.25466 -0.293632,-0.46302 -0.443722,-0.46302 -0.150088,0 -0.272987,0.20836 -0.273106,0.46302 -2.04e-4,0.42365 -0.365792,0.45953 -4.299479,0.42201 -2.364595,-0.0225 -4.537385,-0.0466 -4.828426,-0.0535 -0.291042,-0.007 -2.07698,0.0435 -3.96875,0.1119 l -3.439584,0.12435 0.727605,-0.61 c 0.400182,-0.33549 0.727604,-0.80782 0.727604,-1.04961 0,-0.57108 -1.540367,-1.74035 -2.561844,-1.94464 -0.692396,-0.13848 -0.908511,-0.0254 -1.634964,0.85598 -0.643713,0.78093 -0.821034,1.22988 -0.767543,1.94331 l 0.06956,0.92776 -1.322917,0.0457 c -0.727604,0.0251 -1.620573,-0.0432 -1.984375,-0.15176 z m 20.749536,-1.43102 c 0.465505,-0.73798 -0.145982,-1.37875 -1.280997,-1.34234 -1.184005,0.038 -1.492969,0.30006 -0.881144,0.74743 0.254434,0.18605 0.462605,0.46524 0.462605,0.62043 0,0.28142 0.705747,0.5653 1.171723,0.47131 0.135123,-0.0273 0.37264,-0.25083 0.527813,-0.49683 z m 4.650464,0.0819 c 0,-0.14552 -0.119062,-0.26459 -0.264583,-0.26459 -0.145521,0 -0.264583,0.11907 -0.264583,0.26459 0,0.14552 0.119062,0.26458 0.264583,0.26458 0.145521,0 0.264583,-0.11906 0.264583,-0.26458 z m -4.365625,-18.78542 c -0.08994,-0.14552 -0.03743,-0.26458 0.116676,-0.26458 0.15411,0 0.280199,0.11906 0.280199,0.26458 0,0.14552 -0.0525,0.26458 -0.116676,0.26458 -0.06417,0 -0.190262,-0.11906 -0.280199,-0.26458 z m -5.159375,-0.52917 c 0,-0.14552 0.119063,-0.26458 0.264584,-0.26458 0.145521,0 0.264583,0.11906 0.264583,0.26458 0,0.14552 -0.119062,0.26459 -0.264583,0.26459 -0.145521,0 -0.264584,-0.11907 -0.264584,-0.26459 z"
         id="path4564"
         inkscape:connector-curvature="0" />
    </g>
  </g>
</svg>
